<svg width="90" height="945" viewBox="0 0 90 945" fill="none" xmlns="http://www.w3.org/2000/svg">

<path d="M49.5695 2.65879C48.1774 0.283653 45.1154 -0.500141 42.7304 0.908134C40.3453 2.31641 39.5405 5.38347 40.9327 7.75861L49.5695 2.65879ZM83.8421 104.476L88.8084 105.025L83.8421 104.476ZM58.5756 182.06L62.7601 184.768L58.5756 182.06ZM13.6098 242.149L8.89267 240.522L13.6098 242.149ZM12.4271 336.269L7.48977 337.094L12.4271 336.269ZM32.3929 448.548L37.2635 447.384L32.3929 448.548ZM68.6365 618.644L63.6386 618.833L68.6365 618.644ZM28.9439 723.038L32.5679 726.458L28.9439 723.038ZM26.5704 911.934L31.3642 910.48L26.5704 911.934ZM28.7538 946.532C29.7092 949.117 32.5842 950.423 35.1753 949.45C37.7663 948.477 39.0923 945.593 38.1368 943.009L28.7538 946.532ZM45.4445 15.4886C46.8245 17.8709 49.8823 18.6703 52.2744 17.2742C54.6665 15.878 55.4869 12.815 54.107 10.4327L45.4445 15.4886ZM62.9921 26.2056C61.6762 23.7871 58.6412 22.9065 56.2133 24.2389C53.7854 25.5712 52.884 28.6119 54.1999 31.0305L62.9921 26.2056ZM62.3817 46.8027C63.5943 49.2752 66.5886 50.283 69.0698 49.0536C71.5509 47.8243 72.5793 44.8234 71.3668 42.3509L62.3817 46.8027ZM78.9326 59.0078C77.8796 56.4624 74.9564 55.2665 72.4034 56.3368C69.8505 57.407 68.6344 60.3381 69.6874 62.8835L78.9326 59.0078ZM75.5916 79.3148C76.3736 81.9577 79.1546 83.4516 81.8032 82.6517C84.4517 81.8517 85.9649 79.0608 85.183 76.418L75.5916 79.3148ZM88.9087 95.0462C88.6841 92.2957 86.2707 90.2633 83.5182 90.5067C80.7658 90.7501 78.7166 93.1772 78.9412 95.9277L88.9087 95.0462ZM77.9548 114.565C77.7887 117.322 79.8888 119.677 82.6454 119.824C85.402 119.971 87.7713 117.855 87.9373 115.098L77.9548 114.565ZM86.0182 136.414C86.5468 133.701 84.778 131.087 82.0675 130.577C79.3569 130.067 76.7311 131.854 76.2025 134.567L86.0182 136.414ZM69.7657 152.931C68.5652 155.426 69.6082 158.408 72.0952 159.591C74.5822 160.774 77.5715 159.711 78.772 157.216L69.7657 152.931ZM68.4197 175.839C69.8695 173.479 69.1395 170.404 66.7891 168.971C64.4387 167.537 61.358 168.288 59.9081 170.648L68.4197 175.839ZM48.9962 185.676C46.9766 187.573 46.8663 190.738 48.7499 192.744C50.6334 194.75 53.7975 194.839 55.8171 192.942L48.9962 185.676ZM41.2533 205.281C43.2773 203.389 43.3949 200.225 41.516 198.214C39.6372 196.203 36.4734 196.107 34.4494 198L41.2533 205.281ZM21.5044 213.632C20.0139 215.966 20.6903 219.054 23.0152 220.529C25.34 222.003 28.4329 221.306 29.9234 218.971L21.5044 213.632ZM21.6346 235.126C22.7013 232.572 21.501 229.651 18.9537 228.602C16.4065 227.553 13.4768 228.773 12.4101 231.327L21.6346 235.126ZM5.13697 252.226C4.37421 254.885 5.9075 257.644 8.56167 258.388C11.2158 259.133 13.9858 257.581 14.7486 254.922L5.13697 252.226ZM10.5303 277.377C10.7245 274.621 8.64878 272.245 5.89402 272.07C3.13926 271.894 0.748634 273.986 0.554408 276.742L10.5303 277.377ZM1.65511 301.599C2.02196 304.333 4.53823 306.237 7.27535 305.851C10.0125 305.466 11.934 302.937 11.5671 300.202L1.65511 301.599ZM15.3881 323.596C14.9213 320.878 12.3364 319.067 9.61452 319.553C6.89266 320.038 5.06456 322.635 5.53135 325.353L15.3881 323.596ZM8.87338 346.398C9.25369 349.13 11.7794 351.022 14.5147 350.623C17.2499 350.224 19.159 347.685 18.7787 344.953L8.87338 346.398ZM21.3103 363.804C20.9346 361.072 18.4121 359.176 15.6762 359.57C12.9402 359.964 11.0269 362.5 11.4026 365.232L21.3103 363.804ZM14.2354 384.167C14.6796 386.889 17.2493 388.721 19.9749 388.258C22.7006 387.795 24.55 385.213 24.1059 382.491L14.2354 384.167ZM27.3905 401.091C26.8777 398.381 24.2622 396.616 21.5486 397.147C18.8351 397.678 17.051 400.305 17.5638 403.015L27.3905 401.091ZM21.3152 421.764C21.882 424.463 24.5325 426.176 27.2353 425.591C29.9381 425.006 31.6697 422.344 31.1029 419.645L21.3152 421.764ZM35.1375 438.119C34.5295 435.43 31.8529 433.758 29.159 434.384C26.4652 435.01 24.7743 437.698 25.3822 440.387L35.1375 438.119ZM30.1665 460.408C30.8602 463.076 33.5895 464.662 36.2626 463.95C38.9356 463.238 40.5402 460.498 39.8464 457.83L30.1665 460.408ZM45.6213 478.713C44.8592 476.065 42.0896 474.55 39.4352 475.33C36.7808 476.11 35.2469 478.89 36.009 481.539L45.6213 478.713ZM42.0765 502.468C42.8397 505.117 45.61 506.63 48.264 505.849C50.918 505.068 52.4508 502.287 51.6875 499.639L42.0765 502.468ZM57.5833 520.71C56.8684 518.048 54.1265 516.484 51.4591 517.217C48.7916 517.95 47.2087 520.702 47.9235 523.364L57.5833 520.71ZM53.2105 544.338C53.8371 547.023 56.5254 548.677 59.215 548.032C61.9045 547.387 63.5769 544.688 62.9502 542.003L53.2105 544.338ZM67.4897 563.555C66.9849 560.844 64.3747 559.07 61.6597 559.593C58.9446 560.117 57.1528 562.739 57.6575 565.45L67.4897 563.555ZM61.0266 586.708C61.3807 589.444 63.8881 591.359 66.6269 590.987C69.3657 590.614 71.2988 588.093 70.9446 585.358L61.0266 586.708ZM73.1001 607.381C72.9203 604.627 70.5405 602.555 67.7848 602.754C65.029 602.953 62.9409 605.346 63.1207 608.1L73.1001 607.381ZM63.9955 628.551C64.1012 631.31 66.4241 633.445 69.1836 633.32C71.9432 633.196 74.0945 630.858 73.9888 628.1L63.9955 628.551ZM74.1431 647.907C74.2787 645.148 72.1527 642.817 69.3944 642.7C66.6362 642.584 64.2902 644.725 64.1545 647.484L74.1431 647.907ZM61.3159 665.457C60.5521 668.116 62.0843 670.875 64.7382 671.621C67.3921 672.367 70.1627 670.816 70.9264 668.157L61.3159 665.457ZM62.962 687.063C64.3022 684.64 63.4313 681.602 61.0167 680.279C58.6021 678.955 55.5583 679.847 54.218 682.27L62.962 687.063ZM43.9411 697.883C42.2735 700.095 42.7061 703.228 44.9074 704.881C47.1087 706.533 50.245 706.079 51.9126 703.867L43.9411 697.883ZM39.2673 719.169C41.1119 717.101 40.9411 713.941 38.8859 712.111C36.8306 710.281 33.6692 710.473 31.8246 712.541L39.2673 719.169ZM19.1733 728.916C17.9798 731.414 19.0311 734.393 21.5215 735.569C24.0119 736.746 26.9982 735.674 28.1917 733.176L19.1733 728.916ZM22.8847 750.395C23.4288 747.684 21.675 745.06 18.9675 744.535C16.26 744.009 13.6241 745.781 13.0801 748.492L22.8847 750.395ZM10.3341 768.112C10.0834 770.864 12.1097 773.282 14.8599 773.514C17.6101 773.746 20.0427 771.703 20.2934 768.952L10.3341 768.112ZM19.2196 787.878C19.2941 785.117 17.1166 782.834 14.356 782.779C11.5954 782.723 9.2971 784.916 9.22263 787.677L19.2196 787.878ZM9.1571 807.174C9.20725 809.934 11.4863 812.116 14.2474 812.047C17.0085 811.978 19.2062 809.684 19.1561 806.924L9.1571 807.174ZM19.855 825.988C19.7058 823.232 17.3494 821.134 14.5919 821.302C11.8343 821.47 9.71977 823.84 9.86893 826.596L19.855 825.988ZM11.2289 845.961C11.4654 848.711 13.8876 850.733 16.639 850.478C19.3905 850.222 21.4293 847.786 21.1928 845.037L11.2289 845.961ZM23.1246 864.022C22.8015 861.282 20.3163 859.338 17.5737 859.68C14.831 860.021 12.8696 862.52 13.1926 865.259L23.1246 864.022ZM15.8096 884.509C16.2344 887.234 18.7908 889.084 21.5195 888.641C24.2483 888.197 26.116 885.629 25.6912 882.903L15.8096 884.509ZM29.116 901.561C28.5239 898.869 25.8572 897.18 23.1599 897.791C20.4625 898.401 18.7559 901.079 19.348 903.772L29.116 901.561ZM23.1445 920.695C23.402 923.443 25.8396 925.446 28.5892 925.17C31.3388 924.894 33.359 922.443 33.1016 919.695L23.1445 920.695ZM35.6089 935.378C34.8512 932.728 32.0842 931.208 29.4285 931.984C26.7729 932.76 25.2343 935.537 25.992 938.187L35.6089 935.378ZM40.9327 7.75861C42.3186 10.1231 43.8354 12.7109 45.4445 15.4886L54.107 10.4327C52.4834 7.62993 50.9543 5.0213 49.5695 2.65879L40.9327 7.75861ZM54.1999 31.0305C56.9436 36.0729 59.7225 41.3803 62.3817 46.8027L71.3668 42.3509C68.6329 36.7762 65.7869 31.342 62.9921 26.2056L54.1999 31.0305ZM69.6874 62.8835C72.0037 68.4831 74.0224 74.0112 75.5916 79.3148L85.183 76.418C83.4931 70.7065 81.3473 64.8451 78.9326 59.0078L69.6874 62.8835ZM78.9412 95.9277C79.1786 98.8342 79.1595 101.508 78.8758 103.928L88.8084 105.025C89.1835 101.824 89.1887 98.4749 88.9087 95.0462L78.9412 95.9277ZM78.8758 103.928C78.4142 107.867 78.1474 111.366 77.9548 114.565L87.9373 115.098C88.1226 112.021 88.3753 108.72 88.8084 105.025L78.8758 103.928ZM76.2025 134.567C75.203 139.699 73.392 145.395 69.7657 152.931L78.772 157.216C82.7121 149.028 84.8302 142.513 86.0182 136.414L76.2025 134.567ZM59.9081 170.648C58.2385 173.366 56.4051 176.26 54.3911 179.352L62.7601 184.768C64.8167 181.611 66.6982 178.642 68.4197 175.839L59.9081 170.648ZM54.3911 179.352C52.8262 181.754 51.0368 183.759 48.9962 185.676L55.8171 192.942C58.2917 190.617 60.6529 188.003 62.7601 184.768L54.3911 179.352ZM34.4494 198C30.229 201.946 25.8431 206.836 21.5044 213.632L29.9234 218.971C33.7528 212.973 37.5718 208.724 41.2533 205.281L34.4494 198ZM12.4101 231.327C11.2195 234.178 10.0459 237.236 8.89267 240.522L18.3268 243.775C19.4196 240.661 20.5238 237.786 21.6346 235.126L12.4101 231.327ZM8.89267 240.522C7.43743 244.669 6.19139 248.55 5.13697 252.226L14.7486 254.922C15.7416 251.46 16.9263 247.767 18.3268 243.775L8.89267 240.522ZM0.554408 276.742C-0.0379194 285.146 0.502253 293.006 1.65511 301.599L11.5671 300.202C10.4682 292.012 10.0017 284.876 10.5303 277.377L0.554408 276.742ZM5.53135 325.353C6.16184 329.025 6.82004 332.919 7.48977 337.094L17.3645 335.444C16.6866 331.219 16.0216 327.285 15.3881 323.596L5.53135 325.353ZM7.48977 337.094C7.9899 340.211 8.43943 343.28 8.87338 346.398L18.7787 344.953C18.3384 341.79 17.8786 338.649 17.3645 335.444L7.48977 337.094ZM11.4026 365.232C12.1816 370.899 13.0813 377.094 14.2354 384.167L24.1059 382.491C22.9686 375.522 22.0812 369.412 21.3103 363.804L11.4026 365.232ZM17.5638 403.015C18.6462 408.734 19.884 414.95 21.3152 421.764L31.1029 419.645C29.6848 412.893 28.46 406.742 27.3905 401.091L17.5638 403.015ZM25.3822 440.387C26.0622 443.395 26.7749 446.502 27.5224 449.713L37.2635 447.384C36.5207 444.192 35.8127 441.106 35.1375 438.119L25.3822 440.387ZM27.5224 449.713C28.3419 453.234 29.2282 456.8 30.1665 460.408L39.8464 457.83C38.9256 454.289 38.0604 450.807 37.2635 447.384L27.5224 449.713ZM36.009 481.539C37.9421 488.257 40.0504 495.439 42.0765 502.468L51.6875 499.639C49.5927 492.371 47.6034 485.602 45.6213 478.713L36.009 481.539ZM47.9235 523.364C49.7636 530.217 51.5459 537.206 53.2105 544.338L62.9502 542.003C61.2556 534.742 59.4452 527.644 57.5833 520.71L47.9235 523.364ZM57.6575 565.45C58.9529 572.408 60.0925 579.493 61.0266 586.708L70.9446 585.358C69.9847 577.943 68.8153 570.675 67.4897 563.555L57.6575 565.45ZM63.1207 608.1C63.3523 611.648 63.5267 615.225 63.6386 618.833L73.6344 618.455C73.5189 614.73 73.3389 611.039 73.1001 607.381L63.1207 608.1ZM63.6386 618.833C63.7433 622.212 63.8769 625.458 63.9955 628.551L73.9888 628.1C73.8688 624.971 73.7376 621.786 73.6344 618.455L63.6386 618.833ZM64.1545 647.484C63.8551 653.573 63.0519 659.414 61.3159 665.457L70.9264 668.157C72.9206 661.215 73.8147 654.585 74.1431 647.907L64.1545 647.484ZM54.218 682.27C51.5513 687.092 48.1867 692.251 43.9411 697.883L51.9126 703.867C56.3965 697.918 60.0313 692.362 62.962 687.063L54.218 682.27ZM31.8246 712.541C29.785 714.827 27.6193 717.184 25.3199 719.618L32.5679 726.458C34.9284 723.959 37.1593 721.532 39.2673 719.169L31.8246 712.541ZM25.3199 719.618C22.8861 722.195 20.8665 725.372 19.1733 728.916L28.1917 733.176C29.5696 730.292 31.0448 728.071 32.5679 726.458L25.3199 719.618ZM13.0801 748.492C11.868 754.531 10.9694 761.138 10.3341 768.112L20.2934 768.952C20.9045 762.244 21.759 756.003 22.8847 750.395L13.0801 748.492ZM9.22263 787.677C9.0509 794.042 9.03729 800.578 9.1571 807.174L19.1561 806.924C19.0387 800.46 19.0524 794.075 19.2196 787.878L9.22263 787.677ZM9.86893 826.596C10.2224 833.128 10.6833 839.618 11.2289 845.961L21.1928 845.037C20.6558 838.794 20.2024 832.409 19.855 825.988L9.86893 826.596ZM13.1926 865.259C13.9948 872.064 14.8784 878.534 15.8096 884.509L25.6912 882.903C24.7805 877.06 23.9134 870.713 23.1246 864.022L13.1926 865.259ZM19.348 903.772C20.1478 907.41 20.9619 910.649 21.7765 913.389L31.3642 910.48C30.6378 908.036 29.8814 905.042 29.116 901.561L19.348 903.772ZM21.7765 913.389C22.6145 916.208 22.9297 918.403 23.1445 920.695L33.1016 919.695C32.8474 916.982 32.4424 914.106 31.3642 910.48L21.7765 913.389ZM25.992 938.187C26.6948 940.645 27.5942 943.396 28.7538 946.532L38.1368 943.009C37.0528 940.077 36.2343 937.565 35.6089 935.378L25.992 938.187Z" fill="#387067"/>
</svg>
