<svg width="90" height="945" viewBox="0 0 100 945" fill="none" xmlns="http://www.w3.org/2000/svg">
  <defs></defs>
  <path d="M 50.237 3 C 48.844 -1.716 45.782 -2.5 43.397 -1.092 C 41.012 0.316 40.208 3.383 41.6 5.759 L 50.237 0.659 Z M 84.509 102.476 L 89.475 103.025 L 84.509 102.476 Z M 59.243 180.06 L 63.427 182.768 L 59.243 180.06 Z M 14.277 240.149 L 9.56 238.522 L 14.277 240.149 Z M 13.094 334.269 L 8.157 335.094 L 13.094 334.269 Z M 33.06 446.548 L 37.931 445.384 L 33.06 446.548 Z M 69.304 616.644 L 64.306 616.833 L 69.304 616.644 Z M 29.611 721.038 L 33.235 724.458 L 29.611 721.038 Z M 27.237 909.934 L 32.031 908.48 L 27.237 909.934 Z M 29.421 944.532 C 30.376 947.117 33.251 948.423 35.842 947.45 C 38.433 946.477 39.759 943.593 38.804 941.009 L 29.421 944.532 Z M 46.112 13.489 C 47.492 15.871 50.549 16.67 52.941 15.274 C 55.334 13.878 56.154 10.815 54.774 8.433 L 46.112 13.489 Z M 63.659 24.206 C 62.343 21.787 59.308 20.907 56.88 22.239 C 54.452 23.571 53.551 26.612 54.867 29.031 L 63.659 24.206 Z M 63.049 44.803 C 64.261 47.275 67.256 48.283 69.737 47.054 C 72.218 45.824 73.246 42.823 72.034 40.351 L 63.049 44.803 Z M 79.6 57.008 C 78.547 54.462 75.623 53.267 73.07 54.337 C 70.518 55.407 69.301 58.338 70.354 60.884 L 79.6 57.008 Z M 76.259 77.315 C 77.041 79.958 79.822 81.452 82.47 80.652 C 85.119 79.852 86.632 77.061 85.85 74.418 L 76.259 77.315 Z M 89.576 93.046 C 89.351 90.296 86.938 88.263 84.185 88.507 C 81.433 88.75 79.384 91.177 79.608 93.928 L 89.576 93.046 Z M 78.622 112.565 C 78.456 115.322 80.556 117.677 83.312 117.824 C 86.069 117.971 88.438 115.855 88.604 113.098 L 78.622 112.565 Z M 86.685 134.414 C 87.214 131.701 85.445 129.087 82.735 128.577 C 80.024 128.067 77.398 129.854 76.87 132.567 L 86.685 134.414 Z M 70.433 150.931 C 69.232 153.426 70.275 156.408 72.762 157.591 C 75.249 158.774 78.239 157.711 79.439 155.216 L 70.433 150.931 Z M 69.087 173.839 C 70.537 171.479 69.807 168.404 67.456 166.971 C 65.106 165.537 62.025 166.288 60.575 168.648 L 69.087 173.839 Z M 49.663 183.676 C 47.644 185.573 47.533 188.738 49.417 190.744 C 51.3 192.75 54.465 192.839 56.484 190.942 L 49.663 183.676 Z M 41.92 203.281 C 43.944 201.389 44.062 198.225 42.183 196.214 C 40.304 194.203 37.14 194.107 35.116 196 L 41.92 203.281 Z M 22.171 211.632 C 20.681 213.966 21.357 217.054 23.682 218.529 C 26.007 220.003 29.1 219.306 30.59 216.971 L 22.171 211.632 Z M 22.302 233.126 C 23.368 230.572 22.168 227.651 19.621 226.602 C 17.074 225.553 14.144 226.773 13.077 229.327 L 22.302 233.126 Z M 5.804 250.226 C 5.041 252.885 6.575 255.644 9.229 256.388 C 11.883 257.133 14.653 255.581 15.416 252.922 L 5.804 250.226 Z M 11.197 275.377 C 11.392 272.621 9.316 270.245 6.561 270.07 C 3.806 269.894 1.416 271.986 1.221 274.742 L 11.197 275.377 Z M 2.322 299.599 C 2.689 302.333 5.205 304.237 7.942 303.851 C 10.68 303.466 12.601 300.937 12.234 298.202 L 2.322 299.599 Z M 16.055 321.596 C 15.588 318.878 13.003 317.067 10.282 317.553 C 7.56 318.038 5.732 320.635 6.198 323.353 L 16.055 321.596 Z M 9.54 344.398 C 9.921 347.13 12.446 349.022 15.182 348.623 C 17.917 348.224 19.826 345.685 19.446 342.953 L 9.54 344.398 Z M 21.977 361.804 C 21.602 359.072 19.079 357.176 16.343 357.57 C 13.607 357.964 11.694 360.5 12.07 363.232 L 21.977 361.804 Z M 14.902 382.167 C 15.347 384.889 17.916 386.721 20.642 386.258 C 23.368 385.795 25.217 383.213 24.773 380.491 L 14.902 382.167 Z M 28.058 399.091 C 27.545 396.381 24.929 394.616 22.216 395.147 C 19.502 395.678 17.718 398.305 18.231 401.015 L 28.058 399.091 Z M 21.982 419.764 C 22.549 422.463 25.2 424.176 27.902 423.591 C 30.605 423.006 32.337 420.344 31.77 417.645 L 21.982 419.764 Z M 35.805 436.119 C 35.197 433.43 32.52 431.758 29.826 432.384 C 27.132 433.01 25.441 435.698 26.049 438.387 L 35.805 436.119 Z M 30.834 458.408 C 31.527 461.076 34.257 462.662 36.93 461.95 C 39.603 461.238 41.207 458.498 40.513 455.83 L 30.834 458.408 Z M 46.288 476.713 C 45.526 474.065 42.757 472.55 40.102 473.33 C 37.448 474.11 35.914 476.89 36.676 479.539 L 46.288 476.713 Z M 42.744 500.468 C 43.507 503.117 46.277 504.63 48.931 503.849 C 51.585 503.068 53.118 500.287 52.355 497.639 L 42.744 500.468 Z M 58.25 518.71 C 57.535 516.048 54.794 514.484 52.126 515.217 C 49.459 515.95 47.876 518.702 48.591 521.364 L 58.25 518.71 Z M 53.878 542.338 C 54.504 545.023 57.192 546.677 59.882 546.032 C 62.572 545.387 64.244 542.688 63.617 540.003 L 53.878 542.338 Z M 68.157 561.555 C 67.652 558.844 65.042 557.07 62.327 557.593 C 59.612 558.117 57.82 560.739 58.325 563.45 L 68.157 561.555 Z M 61.694 584.708 C 62.048 587.444 64.555 589.359 67.294 588.987 C 70.033 588.614 71.966 586.093 71.612 583.358 L 61.694 584.708 Z M 73.767 605.381 C 73.587 602.627 71.208 600.555 68.452 600.754 C 65.696 600.953 63.608 603.346 63.788 606.1 L 73.767 605.381 Z M 64.663 626.551 C 64.768 629.31 67.091 631.445 69.851 631.32 C 72.61 631.196 74.762 628.858 74.656 626.1 L 64.663 626.551 Z M 74.81 645.907 C 74.946 643.148 72.82 640.817 70.061 640.7 C 67.303 640.584 64.957 642.725 64.822 645.484 L 74.81 645.907 Z M 61.983 663.457 C 61.219 666.116 62.751 668.875 65.405 669.621 C 68.059 670.367 70.83 668.816 71.593 666.157 L 61.983 663.457 Z M 63.629 685.063 C 64.969 682.64 64.098 679.602 61.684 678.279 C 59.269 676.955 56.225 677.847 54.885 680.27 L 63.629 685.063 Z M 44.608 695.883 C 42.941 698.095 43.373 701.228 45.574 702.881 C 47.776 704.533 50.912 704.079 52.58 701.867 L 44.608 695.883 Z M 39.934 717.169 C 41.779 715.101 41.608 711.941 39.553 710.111 C 37.498 708.281 34.336 708.473 32.492 710.541 L 39.934 717.169 Z M 19.84 726.916 C 18.647 729.414 19.698 732.393 22.189 733.569 C 24.679 734.746 27.665 733.674 28.859 731.176 L 19.84 726.916 Z M 23.552 748.395 C 24.096 745.684 22.342 743.06 19.635 742.535 C 16.927 742.009 14.291 743.781 13.747 746.492 L 23.552 748.395 Z M 11.001 766.112 C 10.75 768.864 12.777 771.282 15.527 771.514 C 18.277 771.746 20.71 769.703 20.96 766.952 L 11.001 766.112 Z M 19.887 785.878 C 19.961 783.117 17.784 780.834 15.023 780.779 C 12.262 780.723 9.964 782.916 9.89 785.677 L 19.887 785.878 Z M 9.824 805.174 C 9.874 807.934 12.153 810.116 14.914 810.047 C 17.676 809.978 19.873 807.684 19.823 804.924 L 9.824 805.174 Z M 20.522 823.988 C 20.373 821.232 18.016 819.134 15.259 819.302 C 12.501 819.47 10.387 821.84 10.536 824.596 L 20.522 823.988 Z M 11.896 843.961 C 12.132 846.711 14.555 848.733 17.306 848.478 C 20.058 848.222 22.096 845.786 21.86 843.037 L 11.896 843.961 Z M 23.792 862.022 C 23.469 859.282 20.983 857.338 18.241 857.68 C 15.498 858.021 13.537 860.52 13.86 863.259 L 23.792 862.022 Z M 16.477 882.509 C 16.901 885.234 19.458 887.084 22.187 886.641 C 24.915 886.197 26.783 883.629 26.358 880.903 L 16.477 882.509 Z M 29.783 899.561 C 29.191 896.869 26.524 895.18 23.827 895.791 C 21.13 896.401 19.423 899.079 20.015 901.772 L 29.783 899.561 Z M 23.812 918.695 C 24.069 921.443 26.507 923.446 29.256 923.17 C 32.006 922.894 34.026 920.443 33.769 917.695 L 23.812 918.695 Z M 36.276 933.378 C 35.518 930.728 32.751 929.208 30.096 929.984 C 27.44 930.76 25.901 933.537 26.659 936.187 L 36.276 933.378 Z M 41.6 5.759 C 42.986 8.123 44.502 10.711 46.112 13.489 L 54.774 8.433 C 53.15 5.63 51.621 3.021 50.237 0.659 L 41.6 5.759 Z M 54.867 29.031 C 57.611 34.073 60.39 39.38 63.049 44.803 L 72.034 40.351 C 69.3 34.776 66.454 29.342 63.659 24.206 L 54.867 29.031 Z M 70.354 60.884 C 72.671 66.483 74.689 72.011 76.259 77.315 L 85.85 74.418 C 84.16 68.707 82.014 62.845 79.6 57.008 L 70.354 60.884 Z M 79.608 93.928 C 79.846 96.834 79.827 99.508 79.543 101.928 L 89.475 103.025 C 89.851 99.824 89.856 96.475 89.576 93.046 L 79.608 93.928 Z M 79.543 101.928 C 79.081 105.867 78.814 109.366 78.622 112.565 L 88.604 113.098 C 88.79 110.021 89.042 106.72 89.475 103.025 L 79.543 101.928 Z M 76.87 132.567 C 75.87 137.699 74.059 143.395 70.433 150.931 L 79.439 155.216 C 83.379 147.028 85.497 140.513 86.685 134.414 L 76.87 132.567 Z M 60.575 168.648 C 58.906 171.366 57.072 174.26 55.058 177.352 L 63.427 182.768 C 65.484 179.611 67.365 176.642 69.087 173.839 L 60.575 168.648 Z M 55.058 177.352 C 53.493 179.754 51.704 181.759 49.663 183.676 L 56.484 190.942 C 58.959 188.617 61.32 186.003 63.427 182.768 L 55.058 177.352 Z M 35.116 196 C 30.896 199.946 26.51 204.836 22.171 211.632 L 30.59 216.971 C 34.42 210.973 38.239 206.724 41.92 203.281 L 35.116 196 Z M 13.077 229.327 C 11.887 232.178 10.713 235.236 9.56 238.522 L 18.994 241.775 C 20.087 238.661 21.191 235.786 22.302 233.126 L 13.077 229.327 Z M 9.56 238.522 C 8.104 242.669 6.858 246.55 5.804 250.226 L 15.416 252.922 C 16.409 249.46 17.593 245.767 18.994 241.775 L 9.56 238.522 Z M 1.221 274.742 C 0.629 283.146 1.169 291.006 2.322 299.599 L 12.234 298.202 C 11.135 290.012 10.669 282.876 11.197 275.377 L 1.221 274.742 Z M 6.198 323.353 C 6.829 327.025 7.487 330.919 8.157 335.094 L 18.032 333.444 C 17.354 329.219 16.689 325.285 16.055 321.596 L 6.198 323.353 Z M 8.157 335.094 C 8.657 338.211 9.106 341.28 9.54 344.398 L 19.446 342.953 C 19.005 339.79 18.546 336.649 18.032 333.444 L 8.157 335.094 Z M 12.07 363.232 C 12.849 368.899 13.748 375.094 14.902 382.167 L 24.773 380.491 C 23.636 373.522 22.748 367.412 21.977 361.804 L 12.07 363.232 Z M 18.231 401.015 C 19.313 406.734 20.551 412.95 21.982 419.764 L 31.77 417.645 C 30.352 410.893 29.127 404.742 28.058 399.091 L 18.231 401.015 Z M 26.049 438.387 C 26.729 441.395 27.442 444.502 28.189 447.713 L 37.931 445.384 C 37.188 442.192 36.48 439.106 35.805 436.119 L 26.049 438.387 Z M 28.189 447.713 C 29.009 451.234 29.895 454.8 30.834 458.408 L 40.513 455.83 C 39.593 452.289 38.727 448.807 37.931 445.384 L 28.189 447.713 Z M 36.676 479.539 C 38.609 486.257 40.717 493.439 42.744 500.468 L 52.355 497.639 C 50.26 490.371 48.27 483.602 46.288 476.713 L 36.676 479.539 Z M 48.591 521.364 C 50.431 528.217 52.213 535.206 53.878 542.338 L 63.617 540.003 C 61.923 532.742 60.112 525.644 58.25 518.71 L 48.591 521.364 Z M 58.325 563.45 C 59.62 570.408 60.76 577.493 61.694 584.708 L 71.612 583.358 C 70.652 575.943 69.482 568.675 68.157 561.555 L 58.325 563.45 Z M 63.788 606.1 C 64.019 609.648 64.194 613.225 64.306 616.833 L 74.301 616.455 C 74.186 612.73 74.006 609.039 73.767 605.381 L 63.788 606.1 Z M 64.306 616.833 C 64.41 620.212 64.544 623.458 64.663 626.551 L 74.656 626.1 C 74.536 622.971 74.405 619.786 74.301 616.455 L 64.306 616.833 Z M 64.822 645.484 C 64.522 651.573 63.719 657.414 61.983 663.457 L 71.593 666.157 C 73.588 659.215 74.482 652.585 74.81 645.907 L 64.822 645.484 Z M 54.885 680.27 C 52.218 685.092 48.854 690.251 44.608 695.883 L 52.58 701.867 C 57.064 695.918 60.698 690.362 63.629 685.063 L 54.885 680.27 Z M 32.492 710.541 C 30.452 712.827 28.286 715.184 25.987 717.618 L 33.235 724.458 C 35.595 721.959 37.826 719.532 39.934 717.169 L 32.492 710.541 Z M 25.987 717.618 C 23.553 720.195 21.534 723.372 19.84 726.916 L 28.859 731.176 C 30.237 728.292 31.712 726.071 33.235 724.458 L 25.987 717.618 Z M 13.747 746.492 C 12.535 752.531 11.636 759.138 11.001 766.112 L 20.96 766.952 C 21.572 760.244 22.426 754.003 23.552 748.395 L 13.747 746.492 Z M 9.89 785.677 C 9.718 792.042 9.704 798.578 9.824 805.174 L 19.823 804.924 C 19.706 798.46 19.719 792.075 19.887 785.878 L 9.89 785.677 Z M 10.536 824.596 C 10.889 831.128 11.35 837.618 11.896 843.961 L 21.86 843.037 C 21.323 836.794 20.869 830.409 20.522 823.988 L 10.536 824.596 Z M 13.86 863.259 C 14.662 870.064 15.545 876.534 16.477 882.509 L 26.358 880.903 C 25.448 875.06 24.58 868.713 23.792 862.022 L 13.86 863.259 Z M 20.015 901.772 C 20.815 905.41 21.629 908.649 22.444 911.389 L 32.031 908.48 C 31.305 906.036 30.548 903.042 29.783 899.561 L 20.015 901.772 Z M 22.444 911.389 C 23.282 914.208 23.597 916.403 23.812 918.695 L 33.769 917.695 C 33.514 914.982 33.109 912.106 32.031 908.48 L 22.444 911.389 Z M 26.659 936.187 C 27.362 938.645 28.261 941.396 29.421 944.532 L 38.804 941.009 C 37.72 938.077 36.901 935.565 36.276 933.378 L 26.659 936.187 Z" fill="#387067"></path>
  <ellipse id="Ellipse 1" cy="50" rx="50" ry="50" fill="#80A39E" cx="50"></ellipse>
</svg>