<svg width="121" height="82" viewBox="0 0 121 82" fill="none" xmlns="http://www.w3.org/2000/svg">
<path d="M19.9146 64.9166L10.3354 42.025C10.0833 41.3416 10.1884 40.5444 10.6505 39.6333C11.1127 38.7222 12.1 38.0958 13.6125 37.7541L20.1667 36.2166V20.5C20.1667 18.6208 21.154 17.0121 23.1287 15.6739C25.1033 14.3357 27.4771 13.6666 30.25 13.6666H45.375V3.41663H75.625V13.6666H90.75C93.5229 13.6666 95.8967 14.3357 97.8714 15.6739C99.846 17.0121 100.833 18.6208 100.833 20.5V36.2166L107.388 37.7541C109.152 38.2097 110.202 38.8788 110.539 39.7614C110.875 40.6441 110.917 41.3986 110.665 42.025L101.085 64.9166C96.884 64.9166 93.0608 64.2475 89.6156 62.9093C86.1705 61.5711 83.1875 59.9625 80.6667 58.0833C78.1458 59.9625 75.1629 61.5711 71.7177 62.9093C68.2726 64.2475 64.5333 64.9166 60.5 64.9166C56.4667 64.9166 52.7274 64.2475 49.2823 62.9093C45.8372 61.5711 42.8542 59.9625 40.3333 58.0833C37.8125 59.9625 34.8295 61.5711 31.3844 62.9093C27.9392 64.2475 24.116 64.9166 19.9146 64.9166ZM10.0833 78.5833V71.75H20.1667C23.6958 71.75 27.183 71.3798 30.6281 70.6395C34.0733 69.8993 37.3083 68.7889 40.3333 67.3083C43.3583 68.7889 46.5934 69.8708 50.0386 70.5541C53.4837 71.2375 56.9708 71.5791 60.5 71.5791C64.0292 71.5791 67.5163 71.2375 70.9615 70.5541C74.4066 69.8708 77.6417 68.7889 80.6667 67.3083C83.6917 68.7889 86.9267 69.8993 90.3719 70.6395C93.817 71.3798 97.3042 71.75 100.833 71.75H110.917V78.5833H100.833C97.3042 78.5833 93.859 78.2986 90.4979 77.7291C87.1368 77.1597 83.8597 76.3055 80.6667 75.1666C77.4736 76.3055 74.1755 77.1597 70.7724 77.7291C67.3693 78.2986 63.9451 78.5833 60.5 78.5833C57.0549 78.5833 53.6307 78.2986 50.2276 77.7291C46.8245 77.1597 43.5264 76.3055 40.3333 75.1666C37.1403 76.3055 33.8632 77.1597 30.5021 77.7291C27.141 78.2986 23.6958 78.5833 20.1667 78.5833H10.0833ZM30.25 33.9958L60.5 27.3333L90.75 33.9958V20.5H30.25V33.9958ZM60.5 58.0833C64.4493 58.0833 67.7894 57.1437 70.5203 55.2645C73.2512 53.3854 76.6333 50.8514 80.6667 47.6625C84.7 50.7375 87.4309 52.8444 88.8594 53.9833C90.2879 55.1222 92.0104 56.0902 94.0271 56.8875L99.5729 43.2208L60.5 34.5083L21.175 43.2208L26.9729 56.7166C28.9896 55.9194 30.7122 55.0083 32.1406 53.9833C33.5691 52.9583 36.3 50.8514 40.3333 47.6625C44.5347 50.9083 47.9589 53.4566 50.6057 55.3073C53.2526 57.158 56.5507 58.0833 60.5 58.0833Z" fill="white"/>
</svg>
