<svg width="126" height="122" viewBox="0 0 126 122" fill="none" xmlns="http://www.w3.org/2000/svg">
<path d="M31.5 96.5833V101.667C31.5 103.107 30.9969 104.314 29.9906 105.288C28.9844 106.263 27.7375 106.75 26.25 106.75H21C19.5125 106.75 18.2656 106.263 17.2594 105.288C16.2531 104.314 15.75 103.107 15.75 101.667V61L26.775 30.5C27.3 28.975 28.2406 27.7465 29.5969 26.8145C30.9531 25.8826 32.4625 25.4166 34.125 25.4166H91.875C93.5375 25.4166 95.0469 25.8826 96.4031 26.8145C97.7594 27.7465 98.7 28.975 99.225 30.5L110.25 61V101.667C110.25 103.107 109.747 104.314 108.741 105.288C107.734 106.263 106.487 106.75 105 106.75H99.75C98.2625 106.75 97.0156 106.263 96.0094 105.288C95.0031 104.314 94.5 103.107 94.5 101.667V96.5833H31.5ZM30.45 50.8333H95.55L90.0375 35.5833H35.9625L30.45 50.8333ZM39.375 81.3333C41.5625 81.3333 43.4219 80.592 44.9531 79.1093C46.4844 77.6267 47.25 75.8263 47.25 73.7083C47.25 71.5902 46.4844 69.7899 44.9531 68.3073C43.4219 66.8246 41.5625 66.0833 39.375 66.0833C37.1875 66.0833 35.3281 66.8246 33.7969 68.3073C32.2656 69.7899 31.5 71.5902 31.5 73.7083C31.5 75.8263 32.2656 77.6267 33.7969 79.1093C35.3281 80.592 37.1875 81.3333 39.375 81.3333ZM86.625 81.3333C88.8125 81.3333 90.6719 80.592 92.2031 79.1093C93.7344 77.6267 94.5 75.8263 94.5 73.7083C94.5 71.5902 93.7344 69.7899 92.2031 68.3073C90.6719 66.8246 88.8125 66.0833 86.625 66.0833C84.4375 66.0833 82.5781 66.8246 81.0469 68.3073C79.5156 69.7899 78.75 71.5902 78.75 73.7083C78.75 75.8263 79.5156 77.6267 81.0469 79.1093C82.5781 80.592 84.4375 81.3333 86.625 81.3333ZM26.25 86.4166H99.75V61H26.25V86.4166Z" fill="white"/>
</svg>
