<svg width="122" height="114" viewBox="0 0 122 114" fill="none" xmlns="http://www.w3.org/2000/svg">
<path d="M40.6667 66.5C39.2264 66.5 38.0191 66.0448 37.0448 65.1344C36.0705 64.224 35.5833 63.0958 35.5833 61.75C35.5833 60.4042 36.0705 59.276 37.0448 58.3656C38.0191 57.4552 39.2264 57 40.6667 57C42.1069 57 43.3142 57.4552 44.2885 58.3656C45.2628 59.276 45.75 60.4042 45.75 61.75C45.75 63.0958 45.2628 64.224 44.2885 65.1344C43.3142 66.0448 42.1069 66.5 40.6667 66.5ZM61 66.5C59.5597 66.5 58.3524 66.0448 57.3781 65.1344C56.4038 64.224 55.9167 63.0958 55.9167 61.75C55.9167 60.4042 56.4038 59.276 57.3781 58.3656C58.3524 57.4552 59.5597 57 61 57C62.4403 57 63.6476 57.4552 64.6219 58.3656C65.5962 59.276 66.0833 60.4042 66.0833 61.75C66.0833 63.0958 65.5962 64.224 64.6219 65.1344C63.6476 66.0448 62.4403 66.5 61 66.5ZM81.3333 66.5C79.8931 66.5 78.6858 66.0448 77.7115 65.1344C76.7372 64.224 76.25 63.0958 76.25 61.75C76.25 60.4042 76.7372 59.276 77.7115 58.3656C78.6858 57.4552 79.8931 57 81.3333 57C82.7736 57 83.9809 57.4552 84.9552 58.3656C85.9295 59.276 86.4167 60.4042 86.4167 61.75C86.4167 63.0958 85.9295 64.224 84.9552 65.1344C83.9809 66.0448 82.7736 66.5 81.3333 66.5ZM25.4167 104.5C22.6208 104.5 20.2274 103.57 18.2365 101.709C16.2455 99.849 15.25 97.6125 15.25 95V28.5C15.25 25.8875 16.2455 23.651 18.2365 21.7906C20.2274 19.9302 22.6208 19 25.4167 19H30.5V9.5H40.6667V19H81.3333V9.5H91.5V19H96.5833C99.3792 19 101.773 19.9302 103.764 21.7906C105.755 23.651 106.75 25.8875 106.75 28.5V95C106.75 97.6125 105.755 99.849 103.764 101.709C101.773 103.57 99.3792 104.5 96.5833 104.5H25.4167ZM25.4167 95H96.5833V47.5H25.4167V95ZM25.4167 38H96.5833V28.5H25.4167V38Z" fill="#387067"/>
</svg>
