<svg width="138" height="138" viewBox="0 0 138 138" fill="none" xmlns="http://www.w3.org/2000/svg">
<path d="M39.9625 76.2625L68.425 47.8L60.2312 39.6062L39.9625 59.875L31.9125 51.825L23.7188 60.0187L39.9625 76.2625ZM46 110.762C57.6917 100.029 66.3646 90.2781 72.0187 81.5094C77.6729 72.7406 80.5 64.9542 80.5 58.15C80.5 47.7042 77.1698 39.151 70.5094 32.4906C63.849 25.8302 55.6792 22.5 46 22.5C36.3208 22.5 28.151 25.8302 21.4906 32.4906C14.8302 39.151 11.5 47.7042 11.5 58.15C11.5 64.9542 14.3271 72.7406 19.9812 81.5094C25.6354 90.2781 34.3083 100.029 46 110.762ZM46 126C30.5708 112.871 19.0469 100.676 11.4281 89.4156C3.80937 78.1552 0 67.7333 0 58.15C0 43.775 4.62396 32.3229 13.8719 23.7937C23.1198 15.2646 33.8292 11 46 11C58.1708 11 68.8802 15.2646 78.1281 23.7937C87.376 32.3229 92 43.775 92 58.15C92 67.7333 88.1906 78.1552 80.5719 89.4156C72.9531 100.676 61.4292 112.871 46 126Z" fill="white"/>
</svg>
