<svg width="1440" height="122" viewBox="0 0 1440 122" fill="none" xmlns="http://www.w3.org/2000/svg">
<path opacity="1" d="M1440 0.5H0V90.1732C64.9549 66.156 212.153 32.5319 281.305 90.1732C350.457 147.815 583.262 114.19 691.02 90.1732C789.452 70.4448 1005.1 42.825 1080.25 90.1732C1155.4 137.521 1351.39 109.902 1440 90.1732V0.5Z" fill="#387067" fill-opacity="0.8"/>
<path
          d="M152 3.21371L152.211 0.221155L152 3.21371ZM270.5 28.2137L271.684 25.4573L270.5 28.2137ZM362.5 73.7137L361.833 76.6387L362.5 73.7137ZM506 73.7137L506.348 76.6934L506 73.7137ZM677 51.7137L676.509 48.7542L677 51.7137ZM936 12.2137L936.088 15.2124L936 12.2137ZM1095.5 51.7137L1097.09 49.1707L1095.5 51.7137ZM1383.5 51.7137L1382.88 48.7775L1383.5 51.7137ZM6.66784 45.1539C8.2037 44.5323 8.9449 42.7834 8.32336 41.2475C7.70182 39.7117 5.9529 38.9705 4.41704 39.592L6.66784 45.1539ZM13.564 35.9113C12.0254 36.526 11.2764 38.2716 11.8911 39.8102C12.5057 41.3488 14.2513 42.0978 15.7899 41.4832L13.564 35.9113ZM24.9331 37.8657C26.4759 37.2618 27.2371 35.5215 26.6332 33.9786C26.0293 32.4358 24.289 31.6746 22.7461 32.2785L24.9331 37.8657ZM31.9566 28.7185C30.4085 29.3088 29.6321 31.0424 30.2224 32.5905C30.8127 34.1386 32.5463 34.915 34.0944 34.3247L31.9566 28.7185ZM43.2822 30.8743C44.8363 30.3001 45.6307 28.5747 45.0565 27.0205C44.4822 25.4663 42.7568 24.672 41.2026 25.2462L43.2822 30.8743ZM50.4922 21.8754C48.9313 22.431 48.1163 24.1468 48.6719 25.7077C49.2275 27.2686 50.9433 28.0836 52.5042 27.528L50.4922 21.8754ZM61.7653 24.3014C63.3337 23.7673 64.1721 22.0628 63.638 20.4944C63.1039 18.926 61.3995 18.0876 59.8311 18.6217L61.7653 24.3014ZM69.223 15.5037C67.6464 16.013 66.7812 17.704 67.2906 19.2806C67.7999 20.8573 69.491 21.7224 71.0676 21.2131L69.223 15.5037ZM80.4115 18.2856C81.9971 17.8051 82.8929 16.1301 82.4123 14.5444C81.9317 12.9588 80.2567 12.063 78.6711 12.5436L80.4115 18.2856ZM88.185 9.76697C86.5895 10.2138 85.6584 11.8694 86.1052 13.4649C86.5521 15.0603 88.2077 15.9915 89.8031 15.5447L88.185 9.76697ZM99.2464 13.0236C100.853 12.6169 101.825 10.9852 101.418 9.37903C101.012 7.77285 99.38 6.80044 97.7738 7.20708L99.2464 13.0236ZM107.444 4.90882C105.826 5.26674 104.805 6.86832 105.163 8.48605C105.521 10.1038 107.122 11.1251 108.74 10.7672L107.444 4.90882ZM118.282 8.83468C119.912 8.53722 120.992 6.97476 120.695 5.34483C120.397 3.71489 118.835 2.63471 117.205 2.93217L118.282 8.83468ZM127.069 1.36149C125.427 1.58174 124.274 3.09152 124.495 4.73367C124.715 6.37581 126.225 7.52849 127.867 7.30824L127.069 1.36149ZM137.475 6.30685C139.128 6.18889 140.372 4.75353 140.254 3.10088C140.136 1.44823 138.701 0.204118 137.048 0.32208L137.475 6.30685ZM147.137 0.0104179C145.481 -0.0133367 144.118 1.31041 144.095 2.9671C144.071 4.62378 145.395 5.98605 147.051 6.0098L147.137 0.0104179ZM156.936 6.53311C158.591 6.62658 160.007 5.36135 160.101 3.70713C160.194 2.05292 158.929 0.636138 157.275 0.54267L156.936 6.53311ZM167.379 0.986876C165.724 0.932187 164.337 2.23027 164.282 3.88622C164.227 5.54217 165.525 6.92892 167.181 6.98361L167.379 0.986876ZM177.388 7.26607C179.044 7.30995 180.423 6.00285 180.467 4.34658C180.51 2.69031 179.203 1.31206 177.547 1.26817L177.388 7.26607ZM187.802 1.63989C186.147 1.55348 184.736 2.82475 184.649 4.47935C184.563 6.13395 185.834 7.54532 187.489 7.63173L187.802 1.63989ZM197.464 8.42815C199.11 8.61271 200.595 7.42755 200.779 5.781C200.964 4.13446 199.779 2.65006 198.132 2.46549L197.464 8.42815ZM208.432 4.00034C206.803 3.69677 205.237 4.77109 204.933 6.3999C204.629 8.0287 205.704 9.5952 207.333 9.89877L208.432 4.00034ZM217.092 12.058C218.698 12.4661 220.33 11.4952 220.738 9.88942C221.146 8.28362 220.175 6.65101 218.57 6.24289L217.092 12.058ZM228.499 9.04444C226.916 8.55685 225.237 9.44526 224.749 11.0287C224.262 12.6122 225.15 14.2912 226.734 14.7787L228.499 9.04444ZM236.318 17.9349C237.882 18.4806 239.593 17.6548 240.138 16.0904C240.684 14.526 239.858 12.8154 238.294 12.2697L236.318 17.9349ZM247.944 15.7917C246.395 15.2035 244.662 15.9823 244.074 17.5312C243.486 19.0802 244.265 20.8127 245.814 21.4009L247.944 15.7917ZM255.229 25.0921C256.765 25.7119 258.513 24.9688 259.133 23.4322C259.753 21.8957 259.01 20.1476 257.473 19.5278L255.229 25.0921ZM266.944 23.4391C265.418 22.7951 263.658 23.5106 263.014 25.0371C262.37 26.5637 263.086 28.3233 264.612 28.9673L266.944 23.4391ZM273.758 33.1122C275.217 33.8975 277.036 33.3515 277.821 31.8925C278.607 30.4336 278.061 28.6143 276.602 27.829L273.758 33.1122ZM285.683 33.7377C284.363 32.7371 282.481 32.9966 281.48 34.3172C280.48 35.6378 280.739 37.5195 282.06 38.5201L285.683 33.7377ZM290.04 44.9676C291.32 46.0193 293.211 45.834 294.262 44.5537C295.314 43.2734 295.129 41.383 293.848 40.3313L290.04 44.9676ZM301.894 46.5759C300.547 45.6117 298.673 45.9224 297.709 47.2699C296.744 48.6173 297.055 50.4912 298.403 51.4554L301.894 46.5759ZM307.36 57.23C308.795 58.0587 310.63 57.5675 311.458 56.1329C312.287 54.6982 311.796 52.8633 310.361 52.0345L307.36 57.23ZM319.339 56.6933C317.838 55.9928 316.053 56.6422 315.352 58.1438C314.652 59.6453 315.301 61.4303 316.803 62.1308L319.339 56.6933ZM326.559 66.2605C328.105 66.8553 329.841 66.084 330.436 64.5376C331.031 62.9912 330.26 61.2554 328.713 60.6605L326.559 66.2605ZM338.339 64.0583C336.763 63.547 335.071 64.4101 334.56 65.9861C334.049 67.5621 334.912 69.2542 336.488 69.7655L338.339 64.0583ZM346.549 72.7895C348.145 73.2343 349.8 72.3011 350.245 70.7051C350.689 69.1091 349.756 67.4546 348.16 67.0098L346.549 72.7895ZM358.127 69.6026C356.517 69.2113 354.894 70.1992 354.503 71.8092C354.112 73.4192 355.1 75.0416 356.71 75.4329L358.127 69.6026ZM366.911 77.7694C368.53 78.121 370.128 77.0935 370.48 75.4744C370.831 73.8553 369.804 72.2577 368.185 71.9061L366.911 77.7694ZM378.231 73.9638C376.604 73.6521 375.032 74.7187 374.72 76.346C374.409 77.9733 375.475 79.5451 377.103 79.8567L378.231 73.9638ZM387.362 81.6623C388.998 81.9231 390.536 80.8081 390.797 79.1719C391.058 77.5357 389.943 75.9979 388.306 75.7371L387.362 81.6623ZM398.43 77.1579C396.785 76.9602 395.291 78.1336 395.094 79.7786C394.896 81.4236 396.069 82.9174 397.714 83.1151L398.43 77.1579ZM408.118 84.1325C409.77 84.2557 411.21 83.0162 411.333 81.3639C411.456 79.7116 410.217 78.2723 408.564 78.1491L408.118 84.1325ZM418.731 78.6581C417.075 78.6161 415.698 79.9248 415.656 81.5811C415.614 83.2375 416.923 84.6142 418.579 84.6561L418.731 78.6581ZM429.045 84.6673C430.701 84.6301 432.014 83.2571 431.977 81.6006C431.939 79.9442 430.566 78.6316 428.91 78.6688L429.045 84.6673ZM439.104 78.2238C437.45 78.3284 436.194 79.7537 436.299 81.4073C436.404 83.0608 437.829 84.3165 439.482 84.2119L439.104 78.2238ZM449.859 83.3893C451.509 83.2352 452.722 81.773 452.567 80.1233C452.413 78.4736 450.951 77.2612 449.301 77.4153L449.859 83.3893ZM459.524 76.3539C457.877 76.5392 456.693 78.0241 456.878 79.6705C457.063 81.317 458.548 82.5016 460.195 82.3163L459.524 76.3539ZM470.472 81.1029C472.117 80.9018 473.287 79.4056 473.086 77.761C472.885 76.1164 471.389 74.9462 469.744 75.1473L470.472 81.1029ZM479.977 73.8759C478.332 74.0819 477.167 75.5816 477.373 77.2256C477.579 78.8696 479.078 80.0353 480.722 79.8293L479.977 73.8759ZM490.965 78.5503C492.609 78.3467 493.777 76.8486 493.573 75.2044C493.37 73.5601 491.872 72.3922 490.227 72.5958L490.965 78.5503ZM500.501 71.3433C498.856 71.5401 497.682 73.0333 497.878 74.6784C498.075 76.3236 499.569 77.4976 501.214 77.3008L500.501 71.3433ZM511.093 76.1528C512.739 75.9698 513.926 74.4865 513.743 72.8397C513.56 71.193 512.076 70.0065 510.43 70.1895L511.093 76.1528ZM519.98 69.1723C518.332 69.3414 517.133 70.8145 517.302 72.4627C517.471 74.1109 518.944 75.3101 520.592 75.141L519.98 69.1723ZM530.107 74.1889C531.756 74.0267 532.961 72.5586 532.799 70.9097C532.636 69.2608 531.168 68.0555 529.519 68.2177L530.107 74.1889ZM539.055 67.2833C537.406 67.4454 536.201 68.9134 536.363 70.5623C536.525 72.2112 537.993 73.4166 539.642 73.2546L539.055 67.2833ZM549.175 72.3055C550.824 72.1385 552.025 70.6668 551.858 69.0184C551.691 67.37 550.219 66.1691 548.571 66.336L549.175 72.3055ZM558.088 65.3493C556.44 65.5245 555.246 67.0021 555.421 68.6496C555.597 70.2972 557.074 71.4909 558.722 71.3157L558.088 65.3493ZM568.265 70.2731C569.912 70.0882 571.097 68.6036 570.912 66.9571C570.727 65.3106 569.242 64.1257 567.596 64.3106L568.265 70.2731ZM577.089 63.2148C575.443 63.4099 574.268 64.9019 574.463 66.5472C574.658 68.1926 576.15 69.3682 577.795 69.1731L577.089 63.2148ZM587.313 68.0147C588.957 67.8095 590.124 66.3104 589.919 64.6663C589.713 63.0222 588.214 61.8557 586.57 62.0609L587.313 68.0147ZM596.061 60.8481C594.418 61.0628 593.26 62.5687 593.475 64.2116C593.69 65.8545 595.196 67.0122 596.839 66.7975L596.061 60.8481ZM606.353 65.5272C607.994 65.3035 609.144 63.7914 608.92 62.1497C608.697 60.508 607.184 59.3585 605.543 59.5821L606.353 65.5272ZM615.011 58.2676C613.371 58.4995 612.229 60.0174 612.461 61.658C612.692 63.2985 614.21 64.4405 615.851 64.2086L615.011 58.2676ZM625.34 62.8447C626.979 62.6053 628.114 61.0821 627.875 59.4427C627.635 57.8032 626.112 56.6683 624.473 56.9077L625.34 62.8447ZM633.962 55.501C632.324 55.7473 631.195 57.2753 631.442 58.9137C631.688 60.5522 633.216 61.6806 634.855 61.4343L633.962 55.501ZM644.326 59.9911C645.963 59.7385 647.086 58.2062 646.833 56.5687C646.581 54.9312 645.048 53.8086 643.411 54.0613L644.326 59.9911ZM652.85 52.5874C651.213 52.8459 650.096 54.3821 650.354 56.0187C650.613 57.6553 652.149 58.7724 653.786 58.5139L652.85 52.5874ZM663.25 57.0032C664.885 56.7394 665.997 55.1995 665.734 53.5638C665.47 51.9281 663.93 50.8159 662.294 51.0797L663.25 57.0032ZM671.739 49.5418C670.104 49.8105 668.996 51.3537 669.265 52.9886C669.534 54.6235 671.077 55.731 672.712 55.4623L671.739 49.5418ZM682.475 53.8305C684.108 53.5492 685.203 51.9976 684.922 50.3648C684.641 48.732 683.089 47.6363 681.456 47.9176L682.475 53.8305ZM691.361 46.1553C689.731 46.4538 688.652 48.017 688.95 49.6467C689.249 51.2765 690.812 52.3557 692.442 52.0572L691.361 46.1553ZM702.379 50.1933C704.006 49.8815 705.073 48.3096 704.761 46.6824C704.449 45.0551 702.877 43.9887 701.25 44.3005L702.379 50.1933ZM711.146 42.3721C709.52 42.6936 708.463 44.2719 708.785 45.8972C709.106 47.5226 710.684 48.5796 712.31 48.2581L711.146 42.3721ZM722.206 46.2782C723.83 45.9501 724.881 44.3676 724.553 42.7435C724.225 41.1195 722.642 40.0689 721.018 40.397L722.206 46.2782ZM730.901 38.387C729.278 38.7189 728.231 40.3038 728.563 41.9271C728.895 43.5504 730.48 44.5973 732.103 44.2655L730.901 38.387ZM741.994 42.2386C743.617 41.9056 744.663 40.3199 744.33 38.6968C743.997 37.0738 742.411 36.028 740.788 36.361L741.994 42.2386ZM750.668 34.3364C749.045 34.6682 747.998 36.2532 748.33 37.8765C748.662 39.4997 750.247 40.5467 751.87 40.2148L750.668 34.3364ZM761.753 38.2039C763.377 37.8754 764.427 36.2926 764.098 34.6686C763.77 33.0447 762.187 31.9945 760.563 32.323L761.753 38.2039ZM770.473 30.3339C768.848 30.6571 767.793 32.2365 768.116 33.8615C768.439 35.4866 770.019 36.5418 771.644 36.2186L770.473 30.3339ZM781.524 34.2744C783.151 33.9582 784.213 32.3834 783.897 30.757C783.581 29.1306 782.006 28.0685 780.379 28.3847L781.524 34.2744ZM790.302 26.4824C788.674 26.7899 787.603 28.3589 787.911 29.987C788.218 31.6151 789.787 32.6857 791.415 32.3782L790.302 26.4824ZM801.319 30.5397C802.949 30.2426 804.029 28.6804 803.732 27.0504C803.435 25.4204 801.873 24.3399 800.243 24.637L801.319 30.5397ZM810.202 22.8579C808.57 23.1432 807.479 24.6976 807.764 26.3297C808.049 27.9618 809.604 29.0536 811.236 28.7682L810.202 22.8579ZM821.157 27.074C822.791 26.8017 823.895 25.2561 823.623 23.6218C823.351 21.9875 821.805 20.8833 820.171 21.1555L821.157 27.074ZM830.152 19.5372C828.516 19.7951 827.398 21.3309 827.656 22.9676C827.914 24.6042 829.45 25.722 831.086 25.4641L830.152 19.5372ZM841.031 23.9451C842.67 23.7028 843.802 22.1776 843.56 20.5386C843.318 18.8996 841.792 17.7673 840.153 18.0096L841.031 23.9451ZM850.173 16.5798C848.531 16.8054 847.384 18.319 847.609 19.9604C847.835 21.6018 849.349 22.7495 850.99 22.5239L850.173 16.5798ZM860.963 21.2072C862.607 20.9993 863.771 19.4982 863.563 17.8544C863.355 16.2107 861.854 15.0467 860.211 15.2546L860.963 21.2072ZM870.265 14.0403C868.619 14.2295 867.438 15.7173 867.628 17.3633C867.817 19.0093 869.305 20.1903 870.951 20.001L870.265 14.0403ZM880.948 18.9114C882.596 18.7417 883.794 17.2681 883.625 15.62C883.455 13.9718 881.981 12.7733 880.333 12.9429L880.948 18.9114ZM890.409 11.9683C888.759 12.1175 887.543 13.5762 887.692 15.2263C887.841 16.8764 889.3 18.0931 890.95 17.9439L890.409 11.9683ZM900.963 17.1025C902.615 16.9744 903.85 15.5314 903.722 13.8795C903.594 12.2276 902.151 10.9923 900.499 11.1204L900.963 17.1025ZM910.602 10.4041C908.949 10.5102 907.694 11.9367 907.8 13.5902C907.907 15.2436 909.333 16.4979 910.987 16.3917L910.602 10.4041ZM921.018 15.8158C922.673 15.7321 923.946 14.3229 923.863 12.6682C923.779 11.0134 922.37 9.73979 920.715 9.82344L921.018 15.8158ZM930.837 9.38242C929.181 9.44293 927.888 10.8342 927.948 12.49C928.009 14.1457 929.4 15.4389 931.056 15.3784L930.837 9.38242ZM941.35 15.0473C943.006 14.9926 944.304 13.6058 944.25 11.9499C944.195 10.2939 942.808 8.99585 941.152 9.05058L941.35 15.0473ZM951.653 8.6901C949.997 8.74648 948.701 10.1346 948.757 11.7905C948.813 13.4463 950.201 14.743 951.857 14.6866L951.653 8.6901ZM962.331 14.3707C963.987 14.3305 965.297 12.9553 965.257 11.2989C965.217 9.64252 963.842 8.33231 962.185 8.37245L962.331 14.3707ZM972.754 8.22641C971.097 8.22809 969.756 9.5726 969.757 11.2295C969.759 12.8863 971.104 14.2281 972.76 14.2264L972.754 8.22641ZM983.145 14.4C984.8 14.4611 986.192 13.1685 986.253 11.5128C986.315 9.85703 985.022 8.46522 983.366 8.40406L983.145 14.4ZM994.002 9.06123C992.351 8.91479 990.895 10.134 990.748 11.7843C990.602 13.4347 991.821 14.8913 993.471 15.0377L994.002 9.06123ZM1003.72 16.2586C1005.36 16.5059 1006.88 15.3783 1007.13 13.7401C1007.38 12.1018 1006.25 10.5732 1004.61 10.3258L1003.72 16.2586ZM1015.13 12.2658C1013.51 11.912 1011.91 12.9374 1011.56 14.556C1011.2 16.1746 1012.23 17.7736 1013.85 18.1274L1015.13 12.2658ZM1023.84 20.6509C1025.43 21.1072 1027.09 20.1859 1027.55 18.5931C1028 17.0004 1027.08 15.3393 1025.49 14.883L1023.84 20.6509ZM1035.66 18.1266C1034.1 17.578 1032.38 18.4007 1031.84 19.9642C1031.29 21.5276 1032.11 23.2396 1033.67 23.7882L1035.66 18.1266ZM1043.34 27.4687C1044.87 28.0966 1046.63 27.3627 1047.25 25.8295C1047.88 24.2962 1047.15 22.5442 1045.62 21.9163L1043.34 27.4687ZM1055.37 26.1691C1053.86 25.4745 1052.08 26.1308 1051.39 27.6351C1050.69 29.1393 1051.35 30.9218 1052.85 31.6164L1055.37 26.1691ZM1062.22 36.1596C1063.69 36.9095 1065.5 36.3197 1066.25 34.8423C1067 33.3649 1066.41 31.5593 1064.93 30.8093L1062.22 36.1596ZM1074.28 35.7423C1072.82 34.9468 1071 35.4802 1070.21 36.9336C1069.41 38.387 1069.94 40.21 1071.4 41.0055L1074.28 35.7423ZM1080.5 46.1512C1081.94 46.9847 1083.77 46.4996 1084.61 45.0676C1085.44 43.6357 1084.95 41.7992 1083.52 40.9657L1080.5 46.1512ZM1092.57 46.369C1091.15 45.504 1089.31 45.9483 1088.44 47.3614C1087.58 48.7745 1088.02 50.6213 1089.43 51.4863L1092.57 46.369ZM1098.51 56.7217C1100.01 57.4181 1101.79 56.7639 1102.49 55.2605C1103.19 53.7571 1102.53 51.9738 1101.03 51.2774L1098.51 56.7217ZM1109.64 54.4662C1108.06 53.9896 1106.38 54.8896 1105.91 56.4764C1105.43 58.0632 1106.33 59.736 1107.92 60.2126L1109.64 54.4662ZM1117.59 62.6644C1119.21 63.0115 1120.8 61.9796 1121.15 60.3595C1121.5 58.7394 1120.47 57.1447 1118.85 56.7976L1117.59 62.6644ZM1128.18 58.5278C1126.54 58.2657 1125 59.3795 1124.74 61.0155C1124.48 62.6515 1125.59 64.1902 1127.23 64.4523L1128.18 58.5278ZM1136.93 65.8111C1138.58 66.0114 1140.07 64.8405 1140.27 63.1958C1140.47 61.5511 1139.3 60.0555 1137.66 59.8551L1136.93 65.8111ZM1147.21 60.874C1145.57 60.7211 1144.1 61.9345 1143.95 63.5843C1143.8 65.2341 1145.01 66.6955 1146.66 66.8484L1147.21 60.874ZM1156.39 67.6343C1158.05 67.7494 1159.48 66.5027 1159.59 64.8499C1159.71 63.197 1158.46 61.7639 1156.81 61.6488L1156.39 67.6343ZM1166.43 62.2243C1164.77 62.1405 1163.36 63.414 1163.28 65.0688C1163.2 66.7235 1164.47 68.1329 1166.13 68.2166L1166.43 62.2243ZM1175.86 68.6292C1177.51 68.6865 1178.9 67.3906 1178.96 65.7347C1179.02 64.0789 1177.72 62.6901 1176.06 62.6328L1175.86 68.6292ZM1185.71 62.8981C1184.06 62.8638 1182.68 64.1788 1182.65 65.8353C1182.62 67.4918 1183.93 68.8625 1185.59 68.8968L1185.71 62.8981ZM1195.32 69.0378C1196.97 69.0519 1198.33 67.7203 1198.34 66.0635C1198.36 64.4067 1197.03 63.0522 1195.37 63.0381L1195.32 69.0378ZM1205.03 63.0666C1203.38 63.0706 1202.04 64.417 1202.04 66.0739C1202.04 67.7307 1203.39 69.0706 1205.05 69.0666L1205.03 63.0666ZM1214.77 68.9944C1216.43 68.974 1217.76 67.6144 1217.74 65.9577C1217.72 64.3009 1216.36 62.9744 1214.7 62.9948L1214.77 68.9944ZM1224.37 62.8313C1222.71 62.8667 1221.4 64.2383 1221.43 65.8948C1221.47 67.5513 1222.84 68.8654 1224.49 68.8299L1224.37 62.8313ZM1234.2 68.5807C1235.86 68.5312 1237.16 67.1486 1237.11 65.4925C1237.06 63.8364 1235.68 62.5339 1234.02 62.5833L1234.2 68.5807ZM1243.68 62.2562C1242.03 62.3188 1240.74 63.7117 1240.8 65.3674C1240.86 67.023 1242.26 68.3145 1243.91 68.2519L1243.68 62.2562ZM1253.62 67.8479C1255.27 67.7728 1256.55 66.3702 1256.48 64.715C1256.4 63.0599 1255 61.779 1253.35 61.8541L1253.62 67.8479ZM1263.01 61.3804C1261.35 61.4675 1260.08 62.8794 1260.17 64.534C1260.26 66.1885 1261.67 67.4592 1263.32 67.3721L1263.01 61.3804ZM1273.02 66.827C1274.67 66.7282 1275.94 65.3074 1275.84 63.6535C1275.74 61.9996 1274.32 60.7389 1272.66 60.8377L1273.02 66.827ZM1282.31 60.2276C1280.66 60.3379 1279.41 61.7675 1279.52 63.4207C1279.63 65.0739 1281.06 66.3246 1282.71 66.2143L1282.31 60.2276ZM1292.39 65.5347C1294.04 65.413 1295.28 63.9747 1295.16 62.3223C1295.04 60.67 1293.6 59.4292 1291.95 59.551L1292.39 65.5347ZM1301.58 58.8074C1299.92 58.9408 1298.69 60.3878 1298.83 62.0393C1298.96 63.6907 1300.41 64.9213 1302.06 64.7879L1301.58 58.8074ZM1311.74 63.9702C1313.39 63.8248 1314.61 62.3689 1314.47 60.7184C1314.32 59.068 1312.87 57.8479 1311.22 57.9934L1311.74 63.9702ZM1320.85 57.1076C1319.2 57.2657 1317.99 58.7309 1318.15 60.3802C1318.31 62.0295 1319.77 63.2383 1321.42 63.0802L1320.85 57.1076ZM1331.09 62.1132C1332.74 61.9414 1333.93 60.4661 1333.76 58.8182C1333.59 57.1703 1332.11 55.9737 1330.47 56.1456L1331.09 62.1132ZM1340.06 55.1007C1338.42 55.2878 1337.23 56.7741 1337.42 58.4203C1337.61 60.0666 1339.09 61.2494 1340.74 61.0623L1340.06 55.1007ZM1350.39 59.9139C1352.03 59.709 1353.2 58.21 1353 56.5658C1352.79 54.9217 1351.29 53.755 1349.65 53.96L1350.39 59.9139ZM1359.26 52.6989C1357.62 52.926 1356.47 54.4405 1356.7 56.0817C1356.93 57.7229 1358.44 58.8694 1360.08 58.6423L1359.26 52.6989ZM1369.74 57.2215C1371.38 56.9647 1372.5 55.4297 1372.24 53.7929C1371.99 52.156 1370.45 51.0372 1368.81 51.294L1369.74 57.2215ZM1378.24 49.6925C1376.61 49.9952 1375.53 51.5611 1375.83 53.1901C1376.14 54.8191 1377.7 55.8942 1379.33 55.5915L1378.24 49.6925ZM1388.13 53.9076C1389.76 53.6462 1390.88 52.108 1390.61 50.4719C1390.35 48.8358 1388.82 47.7214 1387.18 47.9828L1388.13 53.9076ZM1395.82 47.0198C1394.17 47.1388 1392.93 48.5749 1393.05 50.2275C1393.16 51.8801 1394.6 53.1233 1396.25 53.0043L1395.82 47.0198ZM1404.69 52.438C1406.35 52.3065 1407.58 50.861 1407.45 49.2094C1407.31 47.5577 1405.87 46.3255 1404.22 46.457L1404.69 52.438ZM1412.41 45.5498C1410.77 45.7853 1409.64 47.3057 1409.87 48.9458C1410.11 50.5858 1411.63 51.7244 1413.27 51.4889L1412.41 45.5498ZM1421.75 50.018C1423.37 49.6919 1424.43 48.1107 1424.1 46.4862C1423.77 44.8618 1422.19 43.8092 1420.57 44.1353L1421.75 50.018ZM1428.68 42.3286C1427.07 42.7187 1426.08 44.3404 1426.47 45.9507C1426.86 47.5609 1428.49 48.55 1430.1 48.1599L1428.68 42.3286ZM2.12741 46.9938C3.58444 46.4029 5.09905 45.7887 6.66784 45.1539L4.41704 39.592C2.84592 40.2278 1.32935 40.8429 -0.127413 41.4336L2.12741 46.9938ZM15.7899 41.4832C18.7159 40.3143 21.7702 39.1037 24.9331 37.8657L22.7461 32.2785C19.568 33.5225 16.5004 34.7382 13.564 35.9113L15.7899 41.4832ZM34.0944 34.3247C37.0901 33.1824 40.1574 32.0289 43.2822 30.8743L41.2026 25.2462C38.0567 26.4086 34.9698 27.5695 31.9566 28.7185L34.0944 34.3247ZM52.5042 27.528C55.5566 26.4415 58.6477 25.3631 61.7653 24.3014L59.8311 18.6217C56.6855 19.6929 53.5684 20.7805 50.4922 21.8754L52.5042 27.528ZM71.0676 21.2131C74.1725 20.21 77.291 19.2314 80.4115 18.2856L78.6711 12.5436C75.5133 13.5007 72.36 14.4902 69.223 15.5037L71.0676 21.2131ZM89.8031 15.5447C92.9657 14.6589 96.1175 13.8157 99.2464 13.0236L97.7738 7.20708C94.5924 8.01253 91.392 8.8688 88.185 9.76697L89.8031 15.5447ZM108.74 10.7672C111.966 10.0534 115.151 9.40606 118.282 8.83468L117.205 2.93217C113.994 3.51813 110.736 4.18055 107.444 4.90882L108.74 10.7672ZM127.867 7.30824C131.163 6.86614 134.372 6.52836 137.475 6.30685L137.048 0.32208C133.807 0.553432 130.474 0.90487 127.069 1.36149L127.867 7.30824ZM147.051 6.0098C148.674 6.03307 150.255 6.09796 151.789 6.20626L152.211 0.221155C150.557 0.104365 148.864 0.0351763 147.137 0.0104179L147.051 6.0098ZM151.789 6.20626C153.561 6.33139 155.275 6.43924 156.936 6.53311L157.275 0.54267C155.64 0.450295 153.954 0.344199 152.211 0.221155L151.789 6.20626ZM167.181 6.98361C170.784 7.10257 174.166 7.18068 177.388 7.26607L177.547 1.26817C174.299 1.18211 170.956 1.10498 167.379 0.986876L167.181 6.98361ZM187.489 7.63173C190.809 7.80515 194.089 8.04991 197.464 8.42815L198.132 2.46549C194.613 2.07106 191.211 1.81796 187.802 1.63989L187.489 7.63173ZM207.333 9.89877C210.4 10.4704 213.628 11.1776 217.092 12.058L218.57 6.24289C214.985 5.3319 211.631 4.59659 208.432 4.00034L207.333 9.89877ZM226.734 14.7787C229.74 15.7044 232.923 16.7508 236.318 17.9349L238.294 12.2697C234.836 11.0634 231.582 9.9937 228.499 9.04444L226.734 14.7787ZM245.814 21.4009C248.798 22.5342 251.931 23.7619 255.229 25.0921L257.473 19.5278C254.141 18.1835 250.97 16.9408 247.944 15.7917L245.814 21.4009ZM264.612 28.9673C266.147 29.6148 267.715 30.2822 269.316 30.9701L271.684 25.4573C270.071 24.7645 268.492 24.0919 266.944 23.4391L264.612 28.9673ZM269.316 30.9701C270.9 31.6506 272.371 32.3657 273.758 33.1122L276.602 27.829C275.062 27.0002 273.432 26.2084 271.684 25.4573L269.316 30.9701ZM282.06 38.5201C284.712 40.5295 287.223 42.654 290.04 44.9676L293.848 40.3313C291.121 38.0908 288.459 35.8412 285.683 33.7377L282.06 38.5201ZM298.403 51.4554C301.055 53.353 303.993 55.2851 307.36 57.23L310.361 52.0345C307.179 50.1963 304.404 48.3717 301.894 46.5759L298.403 51.4554ZM316.803 62.1308C319.768 63.5142 323.004 64.8928 326.559 66.2605L328.713 60.6605C325.281 59.3401 322.173 58.0153 319.339 56.6933L316.803 62.1308ZM336.488 69.7655C339.626 70.7836 342.972 71.7925 346.549 72.7895L348.16 67.0098C344.659 66.034 341.393 65.0491 338.339 64.0583L336.488 69.7655ZM356.71 75.4329C358.374 75.8373 360.081 76.2393 361.833 76.6387L363.167 70.7887C361.442 70.3956 359.762 70.0001 358.127 69.6026L356.71 75.4329ZM361.833 76.6387C363.558 77.0318 365.25 77.4085 366.911 77.7694L368.185 71.9061C366.544 71.5497 364.872 71.1775 363.167 70.7887L361.833 76.6387ZM377.103 79.8567C380.652 80.5364 384.064 81.1366 387.362 81.6623L388.306 75.7371C385.074 75.2218 381.724 74.6326 378.231 73.9638L377.103 79.8567ZM397.714 83.1151C401.286 83.5442 404.741 83.8807 408.118 84.1325L408.564 78.1491C405.28 77.9042 401.915 77.5766 398.43 77.1579L397.714 83.1151ZM418.579 84.6561C422.099 84.7452 425.571 84.7454 429.045 84.6673L428.91 78.6688C425.526 78.7448 422.15 78.7446 418.731 78.6581L418.579 84.6561ZM439.482 84.2119C442.881 83.9969 446.326 83.7194 449.859 83.3893L449.301 77.4153C445.817 77.7408 442.433 78.0132 439.104 78.2238L439.482 84.2119ZM460.195 82.3163C463.507 81.9437 466.923 81.5369 470.472 81.1029L469.744 75.1473C466.206 75.5799 462.81 75.9842 459.524 76.3539L460.195 82.3163ZM480.722 79.8293C484.01 79.4174 487.416 78.9898 490.965 78.5503L490.227 72.5958C486.674 73.036 483.262 73.4642 479.977 73.8759L480.722 79.8293ZM501.214 77.3008C502.894 77.0998 504.605 76.8972 506.348 76.6934L505.652 70.734C503.903 70.9385 502.186 71.1417 500.501 71.3433L501.214 77.3008ZM506.348 76.6934C507.937 76.5077 509.517 76.328 511.093 76.1528L510.43 70.1895C508.844 70.3659 507.253 70.5469 505.652 70.734L506.348 76.6934ZM520.592 75.141C523.725 74.8197 526.883 74.5059 530.107 74.1889L529.519 68.2177C526.292 68.535 523.125 68.8498 519.98 69.1723L520.592 75.141ZM539.642 73.2546C542.724 72.9518 545.892 72.638 549.175 72.3055L548.571 66.336C545.296 66.6677 542.134 66.9808 539.055 67.2833L539.642 73.2546ZM558.722 71.3157C561.788 70.9898 564.963 70.644 568.265 70.2731L567.596 64.3106C564.306 64.68 561.143 65.0245 558.088 65.3493L558.722 71.3157ZM577.795 69.1731C580.856 68.8102 584.024 68.4251 587.313 68.0147L586.57 62.0609C583.293 62.4698 580.137 62.8533 577.089 63.2148L577.795 69.1731ZM596.839 66.7975C599.907 66.3964 603.076 65.9737 606.353 65.5272L605.543 59.5821C602.276 60.0272 599.119 60.4484 596.061 60.8481L596.839 66.7975ZM615.851 64.2086C618.922 63.7745 622.083 63.3204 625.34 62.8447L624.473 56.9077C621.225 57.382 618.073 57.8348 615.011 58.2676L615.851 64.2086ZM634.855 61.4343C637.93 60.9719 641.085 60.4912 644.326 59.9911L643.411 54.0613C640.178 54.5602 637.03 55.0398 633.962 55.501L634.855 61.4343ZM653.786 58.5139C656.867 58.0273 660.021 57.524 663.25 57.0032L662.294 51.0797C659.071 51.5995 655.924 52.1018 652.85 52.5874L653.786 58.5139ZM672.712 55.4623C674.288 55.2033 675.881 54.9403 677.491 54.6733L676.509 48.7542C674.902 49.0207 673.312 49.2832 671.739 49.5418L672.712 55.4623ZM677.491 54.6733C679.145 54.399 680.806 54.1179 682.475 53.8305L681.456 47.9176C679.799 48.203 678.15 48.482 676.509 48.7542L677.491 54.6733ZM692.442 52.0572C695.727 51.4555 699.039 50.8332 702.379 50.1933L701.25 44.3005C697.924 44.9377 694.628 45.557 691.361 46.1553L692.442 52.0572ZM712.31 48.2581C715.583 47.6107 718.881 46.9498 722.206 46.2782L721.018 40.397C717.699 41.0674 714.409 41.7267 711.146 42.3721L712.31 48.2581ZM732.103 44.2655C735.375 43.5966 738.672 42.9201 741.994 42.2386L740.788 36.361C737.466 37.0426 734.171 37.7187 730.901 38.387L732.103 44.2655ZM751.87 40.2148C755.141 39.5462 758.435 38.8752 761.753 38.2039L760.563 32.323C757.24 32.9954 753.941 33.6673 750.668 34.3364L751.87 40.2148ZM771.644 36.2186C774.915 35.5679 778.208 34.9192 781.524 34.2744L780.379 28.3847C777.053 29.0313 773.751 29.6817 770.473 30.3339L771.644 36.2186ZM791.415 32.3782C794.695 31.759 797.996 31.1455 801.319 30.5397L800.243 24.637C796.906 25.2452 793.593 25.861 790.302 26.4824L791.415 32.3782ZM811.236 28.7682C814.522 28.1937 817.829 27.6284 821.157 27.074L820.171 21.1555C816.826 21.7127 813.503 22.2808 810.202 22.8579L811.236 28.7682ZM831.086 25.4641C834.381 24.9451 837.695 24.4382 841.031 23.9451L840.153 18.0096C836.798 18.5056 833.465 19.0153 830.152 19.5372L831.086 25.4641ZM850.99 22.5239C854.295 22.0696 857.619 21.6302 860.963 21.2072L860.211 15.2546C856.844 15.6804 853.498 16.1227 850.173 16.5798L850.99 22.5239ZM870.951 20.001C874.264 19.6201 877.596 19.2564 880.948 18.9114L880.333 12.9429C876.957 13.2905 873.601 13.6567 870.265 14.0403L870.951 20.001ZM890.95 17.9439C894.269 17.6436 897.607 17.3627 900.963 17.1025L900.499 11.1204C897.117 11.3827 893.753 11.6658 890.409 11.9683L890.95 17.9439ZM910.987 16.3917C914.312 16.1781 917.656 15.9857 921.018 15.8158L920.715 9.82344C917.325 9.99478 913.954 10.1888 910.602 10.4041L910.987 16.3917ZM931.056 15.3784C932.729 15.3173 934.406 15.2619 936.088 15.2124L935.912 9.21502C934.216 9.26491 932.524 9.32076 930.837 9.38242L931.056 15.3784ZM936.088 15.2124C937.868 15.1601 939.621 15.1044 941.35 15.0473L941.152 9.05058C939.429 9.10754 937.683 9.16294 935.912 9.21502L936.088 15.2124ZM951.857 14.6866C955.437 14.5647 958.919 14.4534 962.331 14.3707L962.185 8.37245C958.744 8.45585 955.239 8.568 951.653 8.6901L951.857 14.6866ZM972.76 14.2264C976.268 14.2228 979.719 14.2735 983.145 14.4L983.366 8.40406C979.852 8.27425 976.323 8.22278 972.754 8.22641L972.76 14.2264ZM993.471 15.0377C996.873 15.3396 1000.28 15.7393 1003.72 16.2586L1004.61 10.3258C1001.05 9.78697 997.517 9.37317 994.002 9.06123L993.471 15.0377ZM1013.85 18.1274C1017.11 18.8415 1020.44 19.6767 1023.84 20.6509L1025.49 14.883C1021.97 13.8737 1018.52 13.0072 1015.13 12.2658L1013.85 18.1274ZM1033.67 23.7882C1036.81 24.8897 1040.03 26.1124 1043.34 27.4687L1045.62 21.9163C1042.21 20.5227 1038.9 19.2633 1035.66 18.1266L1033.67 23.7882ZM1052.85 31.6164C1055.89 33.0187 1059.01 34.5304 1062.22 36.1596L1064.93 30.8093C1061.66 29.1483 1058.47 27.6041 1055.37 26.1691L1052.85 31.6164ZM1071.4 41.0055C1074.35 42.6238 1077.39 44.3372 1080.5 46.1512L1083.52 40.9657C1080.36 39.1266 1077.28 37.3872 1074.28 35.7423L1071.4 41.0055ZM1089.43 51.4863C1090.91 52.3883 1092.4 53.3116 1093.91 54.2568L1097.09 49.1707C1095.57 48.2154 1094.06 47.2816 1092.57 46.369L1089.43 51.4863ZM1093.91 54.2568C1095.31 55.1339 1096.85 55.9538 1098.51 56.7217L1101.03 51.2774C1099.56 50.5976 1098.25 49.8945 1097.09 49.1707L1093.91 54.2568ZM1107.92 60.2126C1110.9 61.1099 1114.14 61.9251 1117.59 62.6644L1118.85 56.7976C1115.52 56.0859 1112.45 55.3093 1109.64 54.4662L1107.92 60.2126ZM1127.23 64.4523C1130.33 64.9499 1133.58 65.4021 1136.93 65.8111L1137.66 59.8551C1134.37 59.4541 1131.2 59.0123 1128.18 58.5278L1127.23 64.4523ZM1146.66 66.8484C1149.82 67.1417 1153.07 67.4031 1156.39 67.6343L1156.81 61.6488C1153.53 61.4205 1150.33 61.1627 1147.21 60.874L1146.66 66.8484ZM1166.13 68.2166C1169.32 68.3782 1172.56 68.5153 1175.86 68.6292L1176.06 62.6328C1172.8 62.5199 1169.59 62.3841 1166.43 62.2243L1166.13 68.2166ZM1185.59 68.8968C1188.8 68.9633 1192.04 69.0099 1195.32 69.0378L1195.37 63.0381C1192.12 63.0104 1188.89 62.964 1185.71 62.8981L1185.59 68.8968ZM1205.05 69.0666C1208.27 69.0589 1211.51 69.0345 1214.77 68.9944L1214.7 62.9948C1211.46 63.0347 1208.23 63.0589 1205.03 63.0666L1205.05 69.0666ZM1224.49 68.8299C1227.72 68.7608 1230.96 68.6775 1234.2 68.5807L1234.02 62.5833C1230.8 62.6796 1227.58 62.7626 1224.37 62.8313L1224.49 68.8299ZM1243.91 68.2519C1247.15 68.1294 1250.39 67.9945 1253.62 67.8479L1253.35 61.8541C1250.13 62 1246.91 62.1343 1243.68 62.2562L1243.91 68.2519ZM1263.32 67.3721C1266.57 67.2011 1269.8 67.0191 1273.02 66.827L1272.66 60.8377C1269.46 61.029 1266.24 61.2102 1263.01 61.3804L1263.32 67.3721ZM1282.71 66.2143C1285.96 65.9972 1289.19 65.7704 1292.39 65.5347L1291.95 59.551C1288.77 59.7856 1285.55 60.0114 1282.31 60.2276L1282.71 66.2143ZM1302.06 64.7879C1305.33 64.5235 1308.56 64.2506 1311.74 63.9702L1311.22 57.9934C1308.05 58.2725 1304.83 58.5442 1301.58 58.8074L1302.06 64.7879ZM1321.42 63.0802C1324.71 62.7647 1327.94 62.4419 1331.09 62.1132L1330.47 56.1456C1327.33 56.4725 1324.12 56.7936 1320.85 57.1076L1321.42 63.0802ZM1340.74 61.0623C1344.06 60.6845 1347.28 60.3011 1350.39 59.9139L1349.65 53.96C1346.56 54.3443 1343.37 54.7252 1340.06 55.1007L1340.74 61.0623ZM1360.08 58.6423C1363.49 58.1704 1366.72 57.6958 1369.74 57.2215L1368.81 51.294C1365.83 51.762 1362.64 52.2314 1359.26 52.6989L1360.08 58.6423ZM1379.33 55.5915C1381.03 55.2761 1382.63 54.962 1384.12 54.65L1382.88 48.7775C1381.45 49.0789 1379.89 49.3842 1378.24 49.6925L1379.33 55.5915ZM1384.12 54.65C1385.54 54.3521 1386.86 54.1091 1388.13 53.9076L1387.18 47.9828C1385.82 48.1995 1384.4 48.4599 1382.88 48.7775L1384.12 54.65ZM1396.25 53.0043C1398.83 52.8189 1401.71 52.6757 1404.69 52.438L1404.22 46.457C1401.17 46.6999 1398.68 46.8143 1395.82 47.0198L1396.25 53.0043ZM1413.27 51.4889C1415.8 51.1254 1418.59 50.6512 1421.75 50.018L1420.57 44.1353C1417.52 44.7474 1414.83 45.2026 1412.41 45.5498L1413.27 51.4889ZM1430.1 48.1599C1431.43 47.8376 1432.81 47.491 1434.25 47.1182L1432.75 41.3093C1431.34 41.6748 1429.98 42.0138 1428.68 42.3286L1430.1 48.1599Z"
          fill="#FBFBFB"
        />
</svg>
