<svg width="1440" height="122" viewBox="0 0 1440 122" fill="none" xmlns="http://www.w3.org/2000/svg">
  <defs></defs>
  <path opacity="1" d="M 1440 0 L 0 0 L 0 90.173 C 64.955 66.156 212.153 32.532 281.305 90.173 C 350.457 147.815 583.262 114.19 691.02 90.173 C 789.452 70.445 1005.1 42.825 1080.25 90.173 C 1155.4 137.521 1351.39 109.902 1440 90.173 L 1440 0 L 1440 0 Z" fill="#387067" fill-opacity="0.8"></path>
  <path d="M 152 4.214 L 152.211 1.221 L 152 4.214 Z M 270.5 29.214 L 271.684 26.457 L 270.5 29.214 Z M 362.5 74.714 L 361.833 77.639 L 362.5 74.714 Z M 506 74.714 L 506.348 77.693 L 506 74.714 Z M 677 52.714 L 676.509 49.754 L 677 52.714 Z M 936 13.214 L 936.088 16.212 L 936 13.214 Z M 1095.5 52.714 L 1097.09 50.171 L 1095.5 52.714 Z M 1383.5 52.714 L 1382.88 49.778 L 1383.5 52.714 Z M 6.668 46.154 C 8.204 45.532 8.945 43.783 8.323 42.248 C 7.702 40.712 5.953 39.971 4.417 40.592 L 6.668 46.154 Z M 13.564 36.911 C 12.025 37.526 11.276 39.272 11.891 40.81 C 12.506 42.349 14.251 43.098 15.79 42.483 L 13.564 36.911 Z M 24.933 38.866 C 26.476 38.262 27.237 36.522 26.633 34.979 C 26.029 33.436 24.289 32.675 22.746 33.279 L 24.933 38.866 Z M 31.957 29.719 C 30.409 30.309 29.632 32.042 30.222 33.591 C 30.813 35.139 32.546 35.915 34.094 35.325 L 31.957 29.719 Z M 43.282 31.874 C 44.836 31.3 45.631 29.575 45.057 28.021 C 44.482 26.466 42.757 25.672 41.203 26.246 L 43.282 31.874 Z M 50.492 22.875 C 48.931 23.431 48.116 25.147 48.672 26.708 C 49.228 28.269 50.943 29.084 52.504 28.528 L 50.492 22.875 Z M 61.765 25.301 C 63.334 24.767 64.172 23.063 63.638 21.494 C 63.104 19.926 61.4 19.088 59.831 19.622 L 61.765 25.301 Z M 69.223 16.504 C 67.646 17.013 66.781 18.704 67.291 20.281 C 67.8 21.857 69.491 22.722 71.068 22.213 L 69.223 16.504 Z M 80.412 19.286 C 81.997 18.805 82.893 17.13 82.412 15.544 C 81.932 13.959 80.257 13.063 78.671 13.544 L 80.412 19.286 Z M 88.185 10.767 C 86.59 11.214 85.658 12.869 86.105 14.465 C 86.552 16.06 88.208 16.992 89.803 16.545 L 88.185 10.767 Z M 99.246 14.024 C 100.853 13.617 101.825 11.985 101.418 10.379 C 101.012 8.773 99.38 7.8 97.774 8.207 L 99.246 14.024 Z M 107.444 5.909 C 105.826 6.267 104.805 7.868 105.163 9.486 C 105.521 11.104 107.122 12.125 108.74 11.767 L 107.444 5.909 Z M 118.282 9.835 C 119.912 9.537 120.992 7.975 120.695 6.345 C 120.397 4.715 118.835 3.635 117.205 3.932 L 118.282 9.835 Z M 127.069 2.361 C 125.427 2.582 124.274 4.092 124.495 5.734 C 124.715 7.376 126.225 8.528 127.867 8.308 L 127.069 2.361 Z M 137.475 7.307 C 139.128 7.189 140.372 5.754 140.254 4.101 C 140.136 2.448 138.701 1.204 137.048 1.322 L 137.475 7.307 Z M 147.137 1.01 C 145.481 0.987 144.118 2.31 144.095 3.967 C 144.071 5.624 145.395 6.986 147.051 7.01 L 147.137 1.01 Z M 156.936 7.533 C 158.591 7.627 160.007 6.361 160.101 4.707 C 160.194 3.053 158.929 1.636 157.275 1.543 L 156.936 7.533 Z M 167.379 1.987 C 165.724 1.932 164.337 3.23 164.282 4.886 C 164.227 6.542 165.525 7.929 167.181 7.984 L 167.379 1.987 Z M 177.388 8.266 C 179.044 8.31 180.423 7.003 180.467 5.347 C 180.51 3.69 179.203 2.312 177.547 2.268 L 177.388 8.266 Z M 187.802 2.64 C 186.147 2.553 184.736 3.825 184.649 5.479 C 184.563 7.134 185.834 8.545 187.489 8.632 L 187.802 2.64 Z M 197.464 9.428 C 199.11 9.613 200.595 8.428 200.779 6.781 C 200.964 5.134 199.779 3.65 198.132 3.465 L 197.464 9.428 Z M 208.432 5 C 206.803 4.697 205.237 5.771 204.933 7.4 C 204.629 9.029 205.704 10.595 207.333 10.899 L 208.432 5 Z M 217.092 13.058 C 218.698 13.466 220.33 12.495 220.738 10.889 C 221.146 9.284 220.175 7.651 218.57 7.243 L 217.092 13.058 Z M 228.499 10.044 C 226.916 9.557 225.237 10.445 224.749 12.029 C 224.262 13.612 225.15 15.291 226.734 15.779 L 228.499 10.044 Z M 236.318 18.935 C 237.882 19.481 239.593 18.655 240.138 17.09 C 240.684 15.526 239.858 13.815 238.294 13.27 L 236.318 18.935 Z M 247.944 16.792 C 246.395 16.204 244.662 16.982 244.074 18.531 C 243.486 20.08 244.265 21.813 245.814 22.401 L 247.944 16.792 Z M 255.229 26.092 C 256.765 26.712 258.513 25.969 259.133 24.432 C 259.753 22.896 259.01 21.148 257.473 20.528 L 255.229 26.092 Z M 266.944 24.439 C 265.418 23.795 263.658 24.511 263.014 26.037 C 262.37 27.564 263.086 29.323 264.612 29.967 L 266.944 24.439 Z M 273.758 34.112 C 275.217 34.898 277.036 34.352 277.821 32.893 C 278.607 31.434 278.061 29.614 276.602 28.829 L 273.758 34.112 Z M 285.683 34.738 C 284.363 33.737 282.481 33.997 281.48 35.317 C 280.48 36.638 280.739 38.52 282.06 39.52 L 285.683 34.738 Z M 290.04 45.968 C 291.32 47.019 293.211 46.834 294.262 45.554 C 295.314 44.273 295.129 42.383 293.848 41.331 L 290.04 45.968 Z M 301.894 47.576 C 300.547 46.612 298.673 46.922 297.709 48.27 C 296.744 49.617 297.055 51.491 298.403 52.455 L 301.894 47.576 Z M 307.36 58.23 C 308.795 59.059 310.63 58.568 311.458 57.133 C 312.287 55.698 311.796 53.863 310.361 53.035 L 307.36 58.23 Z M 319.339 57.693 C 317.838 56.993 316.053 57.642 315.352 59.144 C 314.652 60.645 315.301 62.43 316.803 63.131 L 319.339 57.693 Z M 326.559 67.26 C 328.105 67.855 329.841 67.084 330.436 65.538 C 331.031 63.991 330.26 62.255 328.713 61.661 L 326.559 67.26 Z M 338.339 65.058 C 336.763 64.547 335.071 65.41 334.56 66.986 C 334.049 68.562 334.912 70.254 336.488 70.766 L 338.339 65.058 Z M 346.549 73.79 C 348.145 74.234 349.8 73.301 350.245 71.705 C 350.689 70.109 349.756 68.455 348.16 68.01 L 346.549 73.79 Z M 358.127 70.603 C 356.517 70.211 354.894 71.199 354.503 72.809 C 354.112 74.419 355.1 76.042 356.71 76.433 L 358.127 70.603 Z M 366.911 78.769 C 368.53 79.121 370.128 78.094 370.48 76.474 C 370.831 74.855 369.804 73.258 368.185 72.906 L 366.911 78.769 Z M 378.231 74.964 C 376.604 74.652 375.032 75.719 374.72 77.346 C 374.409 78.973 375.475 80.545 377.103 80.857 L 378.231 74.964 Z M 387.362 82.662 C 388.998 82.923 390.536 81.808 390.797 80.172 C 391.058 78.536 389.943 76.998 388.306 76.737 L 387.362 82.662 Z M 398.43 78.158 C 396.785 77.96 395.291 79.134 395.094 80.779 C 394.896 82.424 396.069 83.917 397.714 84.115 L 398.43 78.158 Z M 408.118 85.133 C 409.77 85.256 411.21 84.016 411.333 82.364 C 411.456 80.712 410.217 79.272 408.564 79.149 L 408.118 85.133 Z M 418.731 79.658 C 417.075 79.616 415.698 80.925 415.656 82.581 C 415.614 84.238 416.923 85.614 418.579 85.656 L 418.731 79.658 Z M 429.045 85.667 C 430.701 85.63 432.014 84.257 431.977 82.601 C 431.939 80.944 430.566 79.632 428.91 79.669 L 429.045 85.667 Z M 439.104 79.224 C 437.45 79.328 436.194 80.754 436.299 82.407 C 436.404 84.061 437.829 85.317 439.482 85.212 L 439.104 79.224 Z M 449.859 84.389 C 451.509 84.235 452.722 82.773 452.567 81.123 C 452.413 79.474 450.951 78.261 449.301 78.415 L 449.859 84.389 Z M 459.524 77.354 C 457.877 77.539 456.693 79.024 456.878 80.671 C 457.063 82.317 458.548 83.502 460.195 83.316 L 459.524 77.354 Z M 470.472 82.103 C 472.117 81.902 473.287 80.406 473.086 78.761 C 472.885 77.116 471.389 75.946 469.744 76.147 L 470.472 82.103 Z M 479.977 74.876 C 478.332 75.082 477.167 76.582 477.373 78.226 C 477.579 79.87 479.078 81.035 480.722 80.829 L 479.977 74.876 Z M 490.965 79.55 C 492.609 79.347 493.777 77.849 493.573 76.204 C 493.37 74.56 491.872 73.392 490.227 73.596 L 490.965 79.55 Z M 500.501 72.343 C 498.856 72.54 497.682 74.033 497.878 75.678 C 498.075 77.324 499.569 78.498 501.214 78.301 L 500.501 72.343 Z M 511.093 77.153 C 512.739 76.97 513.926 75.487 513.743 73.84 C 513.56 72.193 512.076 71.007 510.43 71.19 L 511.093 77.153 Z M 519.98 70.172 C 518.332 70.341 517.133 71.815 517.302 73.463 C 517.471 75.111 518.944 76.31 520.592 76.141 L 519.98 70.172 Z M 530.107 75.189 C 531.756 75.027 532.961 73.559 532.799 71.91 C 532.636 70.261 531.168 69.056 529.519 69.218 L 530.107 75.189 Z M 539.055 68.283 C 537.406 68.445 536.201 69.913 536.363 71.562 C 536.525 73.211 537.993 74.417 539.642 74.255 L 539.055 68.283 Z M 549.175 73.306 C 550.824 73.139 552.025 71.667 551.858 70.018 C 551.691 68.37 550.219 67.169 548.571 67.336 L 549.175 73.306 Z M 558.088 66.349 C 556.44 66.525 555.246 68.002 555.421 69.65 C 555.597 71.297 557.074 72.491 558.722 72.316 L 558.088 66.349 Z M 568.265 71.273 C 569.912 71.088 571.097 69.604 570.912 67.957 C 570.727 66.311 569.242 65.126 567.596 65.311 L 568.265 71.273 Z M 577.089 64.215 C 575.443 64.41 574.268 65.902 574.463 67.547 C 574.658 69.193 576.15 70.368 577.795 70.173 L 577.089 64.215 Z M 587.313 69.015 C 588.957 68.81 590.124 67.31 589.919 65.666 C 589.713 64.022 588.214 62.856 586.57 63.061 L 587.313 69.015 Z M 596.061 61.848 C 594.418 62.063 593.26 63.569 593.475 65.212 C 593.69 66.855 595.196 68.012 596.839 67.798 L 596.061 61.848 Z M 606.353 66.527 C 607.994 66.304 609.144 64.791 608.92 63.15 C 608.697 61.508 607.184 60.359 605.543 60.582 L 606.353 66.527 Z M 615.011 59.268 C 613.371 59.5 612.229 61.017 612.461 62.658 C 612.692 64.299 614.21 65.441 615.851 65.209 L 615.011 59.268 Z M 625.34 63.845 C 626.979 63.605 628.114 62.082 627.875 60.443 C 627.635 58.803 626.112 57.668 624.473 57.908 L 625.34 63.845 Z M 633.962 56.501 C 632.324 56.747 631.195 58.275 631.442 59.914 C 631.688 61.552 633.216 62.681 634.855 62.434 L 633.962 56.501 Z M 644.326 60.991 C 645.963 60.739 647.086 59.206 646.833 57.569 C 646.581 55.931 645.048 54.809 643.411 55.061 L 644.326 60.991 Z M 652.85 53.587 C 651.213 53.846 650.096 55.382 650.354 57.019 C 650.613 58.655 652.149 59.772 653.786 59.514 L 652.85 53.587 Z M 663.25 58.003 C 664.885 57.739 665.997 56.2 665.734 54.564 C 665.47 52.928 663.93 51.816 662.294 52.08 L 663.25 58.003 Z M 671.739 50.542 C 670.104 50.811 668.996 52.354 669.265 53.989 C 669.534 55.624 671.077 56.731 672.712 56.462 L 671.739 50.542 Z M 682.475 54.831 C 684.108 54.549 685.203 52.998 684.922 51.365 C 684.641 49.732 683.089 48.636 681.456 48.918 L 682.475 54.831 Z M 691.361 47.155 C 689.731 47.454 688.652 49.017 688.95 50.647 C 689.249 52.277 690.812 53.356 692.442 53.057 L 691.361 47.155 Z M 702.379 51.193 C 704.006 50.882 705.073 49.31 704.761 47.682 C 704.449 46.055 702.877 44.989 701.25 45.301 L 702.379 51.193 Z M 711.146 43.372 C 709.52 43.694 708.463 45.272 708.785 46.897 C 709.106 48.523 710.684 49.58 712.31 49.258 L 711.146 43.372 Z M 722.206 47.278 C 723.83 46.95 724.881 45.368 724.553 43.744 C 724.225 42.12 722.642 41.069 721.018 41.397 L 722.206 47.278 Z M 730.901 39.387 C 729.278 39.719 728.231 41.304 728.563 42.927 C 728.895 44.55 730.48 45.597 732.103 45.266 L 730.901 39.387 Z M 741.994 43.239 C 743.617 42.906 744.663 41.32 744.33 39.697 C 743.997 38.074 742.411 37.028 740.788 37.361 L 741.994 43.239 Z M 750.668 35.336 C 749.045 35.668 747.998 37.253 748.33 38.877 C 748.662 40.5 750.247 41.547 751.87 41.215 L 750.668 35.336 Z M 761.753 39.204 C 763.377 38.875 764.427 37.293 764.098 35.669 C 763.77 34.045 762.187 32.995 760.563 33.323 L 761.753 39.204 Z M 770.473 31.334 C 768.848 31.657 767.793 33.237 768.116 34.862 C 768.439 36.487 770.019 37.542 771.644 37.219 L 770.473 31.334 Z M 781.524 35.274 C 783.151 34.958 784.213 33.383 783.897 31.757 C 783.581 30.131 782.006 29.069 780.379 29.385 L 781.524 35.274 Z M 790.302 27.482 C 788.674 27.79 787.603 29.359 787.911 30.987 C 788.218 32.615 789.787 33.686 791.415 33.378 L 790.302 27.482 Z M 801.319 31.54 C 802.949 31.243 804.029 29.68 803.732 28.05 C 803.435 26.42 801.873 25.34 800.243 25.637 L 801.319 31.54 Z M 810.202 23.858 C 808.57 24.143 807.479 25.698 807.764 27.33 C 808.049 28.962 809.604 30.054 811.236 29.768 L 810.202 23.858 Z M 821.157 28.074 C 822.791 27.802 823.895 26.256 823.623 24.622 C 823.351 22.988 821.805 21.883 820.171 22.156 L 821.157 28.074 Z M 830.152 20.537 C 828.516 20.795 827.398 22.331 827.656 23.968 C 827.914 25.604 829.45 26.722 831.086 26.464 L 830.152 20.537 Z M 841.031 24.945 C 842.67 24.703 843.802 23.178 843.56 21.539 C 843.318 19.9 841.792 18.767 840.153 19.01 L 841.031 24.945 Z M 850.173 17.58 C 848.531 17.805 847.384 19.319 847.609 20.96 C 847.835 22.602 849.349 23.75 850.99 23.524 L 850.173 17.58 Z M 860.963 22.207 C 862.607 21.999 863.771 20.498 863.563 18.854 C 863.355 17.211 861.854 16.047 860.211 16.255 L 860.963 22.207 Z M 870.265 15.04 C 868.619 15.23 867.438 16.717 867.628 18.363 C 867.817 20.009 869.305 21.19 870.951 21.001 L 870.265 15.04 Z M 880.948 19.911 C 882.596 19.742 883.794 18.268 883.625 16.62 C 883.455 14.972 881.981 13.773 880.333 13.943 L 880.948 19.911 Z M 890.409 12.968 C 888.759 13.118 887.543 14.576 887.692 16.226 C 887.841 17.876 889.3 19.093 890.95 18.944 L 890.409 12.968 Z M 900.963 18.103 C 902.615 17.974 903.85 16.531 903.722 14.88 C 903.594 13.228 902.151 11.992 900.499 12.12 L 900.963 18.103 Z M 910.602 11.404 C 908.949 11.51 907.694 12.937 907.8 14.59 C 907.907 16.244 909.333 17.498 910.987 17.392 L 910.602 11.404 Z M 921.018 16.816 C 922.673 16.732 923.946 15.323 923.863 13.668 C 923.779 12.013 922.37 10.74 920.715 10.823 L 921.018 16.816 Z M 930.837 10.382 C 929.181 10.443 927.888 11.834 927.948 13.49 C 928.009 15.146 929.4 16.439 931.056 16.378 L 930.837 10.382 Z M 941.35 16.047 C 943.006 15.993 944.304 14.606 944.25 12.95 C 944.195 11.294 942.808 9.996 941.152 10.051 L 941.35 16.047 Z M 951.653 9.69 C 949.997 9.746 948.701 11.135 948.757 12.791 C 948.813 14.446 950.201 15.743 951.857 15.687 L 951.653 9.69 Z M 962.331 15.371 C 963.987 15.331 965.297 13.955 965.257 12.299 C 965.217 10.643 963.842 9.332 962.185 9.372 L 962.331 15.371 Z M 972.754 9.226 C 971.097 9.228 969.756 10.573 969.757 12.23 C 969.759 13.886 971.104 15.228 972.76 15.226 L 972.754 9.226 Z M 983.145 15.4 C 984.8 15.461 986.192 14.169 986.253 12.513 C 986.315 10.857 985.022 9.465 983.366 9.404 L 983.145 15.4 Z M 994.002 10.061 C 992.351 9.915 990.895 11.134 990.748 12.784 C 990.602 14.435 991.821 15.891 993.471 16.038 L 994.002 10.061 Z M 1003.72 17.259 C 1005.36 17.506 1006.88 16.378 1007.13 14.74 C 1007.38 13.102 1006.25 11.573 1004.61 11.326 L 1003.72 17.259 Z M 1015.13 13.266 C 1013.51 12.912 1011.91 13.937 1011.56 15.556 C 1011.2 17.175 1012.23 18.774 1013.85 19.127 L 1015.13 13.266 Z M 1023.84 21.651 C 1025.43 22.107 1027.09 21.186 1027.55 19.593 C 1028 18 1027.08 16.339 1025.49 15.883 L 1023.84 21.651 Z M 1035.66 19.127 C 1034.1 18.578 1032.38 19.401 1031.84 20.964 C 1031.29 22.528 1032.11 24.24 1033.67 24.788 L 1035.66 19.127 Z M 1043.34 28.469 C 1044.87 29.097 1046.63 28.363 1047.25 26.83 C 1047.88 25.296 1047.15 23.544 1045.62 22.916 L 1043.34 28.469 Z M 1055.37 27.169 C 1053.86 26.475 1052.08 27.131 1051.39 28.635 C 1050.69 30.139 1051.35 31.922 1052.85 32.616 L 1055.37 27.169 Z M 1062.22 37.16 C 1063.69 37.91 1065.5 37.32 1066.25 35.842 C 1067 34.365 1066.41 32.559 1064.93 31.809 L 1062.22 37.16 Z M 1074.28 36.742 C 1072.82 35.947 1071 36.48 1070.21 37.934 C 1069.41 39.387 1069.94 41.21 1071.4 42.006 L 1074.28 36.742 Z M 1080.5 47.151 C 1081.94 47.985 1083.77 47.5 1084.61 46.068 C 1085.44 44.636 1084.95 42.799 1083.52 41.966 L 1080.5 47.151 Z M 1092.57 47.369 C 1091.15 46.504 1089.31 46.948 1088.44 48.361 C 1087.58 49.775 1088.02 51.621 1089.43 52.486 L 1092.57 47.369 Z M 1098.51 57.722 C 1100.01 58.418 1101.79 57.764 1102.49 56.261 C 1103.19 54.757 1102.53 52.974 1101.03 52.277 L 1098.51 57.722 Z M 1109.64 55.466 C 1108.06 54.99 1106.38 55.89 1105.91 57.476 C 1105.43 59.063 1106.33 60.736 1107.92 61.213 L 1109.64 55.466 Z M 1117.59 63.664 C 1119.21 64.012 1120.8 62.98 1121.15 61.36 C 1121.5 59.739 1120.47 58.145 1118.85 57.798 L 1117.59 63.664 Z M 1128.18 59.528 C 1126.54 59.266 1125 60.38 1124.74 62.016 C 1124.48 63.652 1125.59 65.19 1127.23 65.452 L 1128.18 59.528 Z M 1136.93 66.811 C 1138.58 67.011 1140.07 65.841 1140.27 64.196 C 1140.47 62.551 1139.3 61.056 1137.66 60.855 L 1136.93 66.811 Z M 1147.21 61.874 C 1145.57 61.721 1144.1 62.935 1143.95 64.584 C 1143.8 66.234 1145.01 67.696 1146.66 67.848 L 1147.21 61.874 Z M 1156.39 68.634 C 1158.05 68.749 1159.48 67.503 1159.59 65.85 C 1159.71 64.197 1158.46 62.764 1156.81 62.649 L 1156.39 68.634 Z M 1166.43 63.224 C 1164.77 63.141 1163.36 64.414 1163.28 66.069 C 1163.2 67.724 1164.47 69.133 1166.13 69.217 L 1166.43 63.224 Z M 1175.86 69.629 C 1177.51 69.687 1178.9 68.391 1178.96 66.735 C 1179.02 65.079 1177.72 63.69 1176.06 63.633 L 1175.86 69.629 Z M 1185.71 63.898 C 1184.06 63.864 1182.68 65.179 1182.65 66.835 C 1182.62 68.492 1183.93 69.863 1185.59 69.897 L 1185.71 63.898 Z M 1195.32 70.038 C 1196.97 70.052 1198.33 68.72 1198.34 67.064 C 1198.36 65.407 1197.03 64.052 1195.37 64.038 L 1195.32 70.038 Z M 1205.03 64.067 C 1203.38 64.071 1202.04 65.417 1202.04 67.074 C 1202.04 68.731 1203.39 70.071 1205.05 70.067 L 1205.03 64.067 Z M 1214.77 69.994 C 1216.43 69.974 1217.76 68.614 1217.74 66.958 C 1217.72 65.301 1216.36 63.974 1214.7 63.995 L 1214.77 69.994 Z M 1224.37 63.831 C 1222.71 63.867 1221.4 65.238 1221.43 66.895 C 1221.47 68.551 1222.84 69.865 1224.49 69.83 L 1224.37 63.831 Z M 1234.2 69.581 C 1235.86 69.531 1237.16 68.149 1237.11 66.493 C 1237.06 64.836 1235.68 63.534 1234.02 63.583 L 1234.2 69.581 Z M 1243.68 63.256 C 1242.03 63.319 1240.74 64.712 1240.8 66.367 C 1240.86 68.023 1242.26 69.315 1243.91 69.252 L 1243.68 63.256 Z M 1253.62 68.848 C 1255.27 68.773 1256.55 67.37 1256.48 65.715 C 1256.4 64.06 1255 62.779 1253.35 62.854 L 1253.62 68.848 Z M 1263.01 62.38 C 1261.35 62.468 1260.08 63.879 1260.17 65.534 C 1260.26 67.189 1261.67 68.459 1263.32 68.372 L 1263.01 62.38 Z M 1273.02 67.827 C 1274.67 67.728 1275.94 66.307 1275.84 64.654 C 1275.74 63 1274.32 61.739 1272.66 61.838 L 1273.02 67.827 Z M 1282.31 61.228 C 1280.66 61.338 1279.41 62.768 1279.52 64.421 C 1279.63 66.074 1281.06 67.325 1282.71 67.214 L 1282.31 61.228 Z M 1292.39 66.535 C 1294.04 66.413 1295.28 64.975 1295.16 63.322 C 1295.04 61.67 1293.6 60.429 1291.95 60.551 L 1292.39 66.535 Z M 1301.58 59.807 C 1299.92 59.941 1298.69 61.388 1298.83 63.039 C 1298.96 64.691 1300.41 65.921 1302.06 65.788 L 1301.58 59.807 Z M 1311.74 64.97 C 1313.39 64.825 1314.61 63.369 1314.47 61.718 C 1314.32 60.068 1312.87 58.848 1311.22 58.993 L 1311.74 64.97 Z M 1320.85 58.108 C 1319.2 58.266 1317.99 59.731 1318.15 61.38 C 1318.31 63.03 1319.77 64.238 1321.42 64.08 L 1320.85 58.108 Z M 1331.09 63.113 C 1332.74 62.941 1333.93 61.466 1333.76 59.818 C 1333.59 58.17 1332.11 56.974 1330.47 57.146 L 1331.09 63.113 Z M 1340.06 56.101 C 1338.42 56.288 1337.23 57.774 1337.42 59.42 C 1337.61 61.067 1339.09 62.249 1340.74 62.062 L 1340.06 56.101 Z M 1350.39 60.914 C 1352.03 60.709 1353.2 59.21 1353 57.566 C 1352.79 55.922 1351.29 54.755 1349.65 54.96 L 1350.39 60.914 Z M 1359.26 53.699 C 1357.62 53.926 1356.47 55.441 1356.7 57.082 C 1356.93 58.723 1358.44 59.869 1360.08 59.642 L 1359.26 53.699 Z M 1369.74 58.222 C 1371.38 57.965 1372.5 56.43 1372.24 54.793 C 1371.99 53.156 1370.45 52.037 1368.81 52.294 L 1369.74 58.222 Z M 1378.24 50.693 C 1376.61 50.995 1375.53 52.561 1375.83 54.19 C 1376.14 55.819 1377.7 56.894 1379.33 56.592 L 1378.24 50.693 Z M 1388.13 54.908 C 1389.76 54.646 1390.88 53.108 1390.61 51.472 C 1390.35 49.836 1388.82 48.721 1387.18 48.983 L 1388.13 54.908 Z M 1395.82 48.02 C 1394.17 48.139 1392.93 49.575 1393.05 51.228 C 1393.16 52.88 1394.6 54.123 1396.25 54.004 L 1395.82 48.02 Z M 1404.69 53.438 C 1406.35 53.307 1407.58 51.861 1407.45 50.209 C 1407.31 48.558 1405.87 47.326 1404.22 47.457 L 1404.69 53.438 Z M 1412.41 46.55 C 1410.77 46.785 1409.64 48.306 1409.87 49.946 C 1410.11 51.586 1411.63 52.724 1413.27 52.489 L 1412.41 46.55 Z M 1421.75 51.018 C 1423.37 50.692 1424.43 49.111 1424.1 47.486 C 1423.77 45.862 1422.19 44.809 1420.57 45.135 L 1421.75 51.018 Z M 1428.68 43.329 C 1427.07 43.719 1426.08 45.34 1426.47 46.951 C 1426.86 48.561 1428.49 49.55 1430.1 49.16 L 1428.68 43.329 Z M 2.127 47.994 C 3.584 47.403 5.099 46.789 6.668 46.154 L 4.417 40.592 C 2.846 41.228 1.329 41.843 -0.127 42.434 L 2.127 47.994 Z M 15.79 42.483 C 18.716 41.314 21.77 40.104 24.933 38.866 L 22.746 33.279 C 19.568 34.523 16.5 35.738 13.564 36.911 L 15.79 42.483 Z M 34.094 35.325 C 37.09 34.182 40.157 33.029 43.282 31.874 L 41.203 26.246 C 38.057 27.409 34.97 28.57 31.957 29.719 L 34.094 35.325 Z M 52.504 28.528 C 55.557 27.442 58.648 26.363 61.765 25.301 L 59.831 19.622 C 56.686 20.693 53.568 21.781 50.492 22.875 L 52.504 28.528 Z M 71.068 22.213 C 74.173 21.21 77.291 20.231 80.412 19.286 L 78.671 13.544 C 75.513 14.501 72.36 15.49 69.223 16.504 L 71.068 22.213 Z M 89.803 16.545 C 92.966 15.659 96.118 14.816 99.246 14.024 L 97.774 8.207 C 94.592 9.013 91.392 9.869 88.185 10.767 L 89.803 16.545 Z M 108.74 11.767 C 111.966 11.053 115.151 10.406 118.282 9.835 L 117.205 3.932 C 113.994 4.518 110.736 5.181 107.444 5.909 L 108.74 11.767 Z M 127.867 8.308 C 131.163 7.866 134.372 7.528 137.475 7.307 L 137.048 1.322 C 133.807 1.553 130.474 1.905 127.069 2.361 L 127.867 8.308 Z M 147.051 7.01 C 148.674 7.033 150.255 7.098 151.789 7.206 L 152.211 1.221 C 150.557 1.104 148.864 1.035 147.137 1.01 L 147.051 7.01 Z M 151.789 7.206 C 153.561 7.331 155.275 7.439 156.936 7.533 L 157.275 1.543 C 155.64 1.45 153.954 1.344 152.211 1.221 L 151.789 7.206 Z M 167.181 7.984 C 170.784 8.103 174.166 8.181 177.388 8.266 L 177.547 2.268 C 174.299 2.182 170.956 2.105 167.379 1.987 L 167.181 7.984 Z M 187.489 8.632 C 190.809 8.805 194.089 9.05 197.464 9.428 L 198.132 3.465 C 194.613 3.071 191.211 2.818 187.802 2.64 L 187.489 8.632 Z M 207.333 10.899 C 210.4 11.47 213.628 12.178 217.092 13.058 L 218.57 7.243 C 214.985 6.332 211.631 5.597 208.432 5 L 207.333 10.899 Z M 226.734 15.779 C 229.74 16.704 232.923 17.751 236.318 18.935 L 238.294 13.27 C 234.836 12.063 231.582 10.994 228.499 10.044 L 226.734 15.779 Z M 245.814 22.401 C 248.798 23.534 251.931 24.762 255.229 26.092 L 257.473 20.528 C 254.141 19.184 250.97 17.941 247.944 16.792 L 245.814 22.401 Z M 264.612 29.967 C 266.147 30.615 267.715 31.282 269.316 31.97 L 271.684 26.457 C 270.071 25.765 268.492 25.092 266.944 24.439 L 264.612 29.967 Z M 269.316 31.97 C 270.9 32.651 272.371 33.366 273.758 34.112 L 276.602 28.829 C 275.062 28 273.432 27.208 271.684 26.457 L 269.316 31.97 Z M 282.06 39.52 C 284.712 41.53 287.223 43.654 290.04 45.968 L 293.848 41.331 C 291.121 39.091 288.459 36.841 285.683 34.738 L 282.06 39.52 Z M 298.403 52.455 C 301.055 54.353 303.993 56.285 307.36 58.23 L 310.361 53.035 C 307.179 51.196 304.404 49.372 301.894 47.576 L 298.403 52.455 Z M 316.803 63.131 C 319.768 64.514 323.004 65.893 326.559 67.26 L 328.713 61.661 C 325.281 60.34 322.173 59.015 319.339 57.693 L 316.803 63.131 Z M 336.488 70.766 C 339.626 71.784 342.972 72.793 346.549 73.79 L 348.16 68.01 C 344.659 67.034 341.393 66.049 338.339 65.058 L 336.488 70.766 Z M 356.71 76.433 C 358.374 76.837 360.081 77.239 361.833 77.639 L 363.167 71.789 C 361.442 71.396 359.762 71 358.127 70.603 L 356.71 76.433 Z M 361.833 77.639 C 363.558 78.032 365.25 78.409 366.911 78.769 L 368.185 72.906 C 366.544 72.55 364.872 72.178 363.167 71.789 L 361.833 77.639 Z M 377.103 80.857 C 380.652 81.536 384.064 82.137 387.362 82.662 L 388.306 76.737 C 385.074 76.222 381.724 75.633 378.231 74.964 L 377.103 80.857 Z M 397.714 84.115 C 401.286 84.544 404.741 84.881 408.118 85.133 L 408.564 79.149 C 405.28 78.904 401.915 78.577 398.43 78.158 L 397.714 84.115 Z M 418.579 85.656 C 422.099 85.745 425.571 85.745 429.045 85.667 L 428.91 79.669 C 425.526 79.745 422.15 79.745 418.731 79.658 L 418.579 85.656 Z M 439.482 85.212 C 442.881 84.997 446.326 84.719 449.859 84.389 L 449.301 78.415 C 445.817 78.741 442.433 79.013 439.104 79.224 L 439.482 85.212 Z M 460.195 83.316 C 463.507 82.944 466.923 82.537 470.472 82.103 L 469.744 76.147 C 466.206 76.58 462.81 76.984 459.524 77.354 L 460.195 83.316 Z M 480.722 80.829 C 484.01 80.417 487.416 79.99 490.965 79.55 L 490.227 73.596 C 486.674 74.036 483.262 74.464 479.977 74.876 L 480.722 80.829 Z M 501.214 78.301 C 502.894 78.1 504.605 77.897 506.348 77.693 L 505.652 71.734 C 503.903 71.939 502.186 72.142 500.501 72.343 L 501.214 78.301 Z M 506.348 77.693 C 507.937 77.508 509.517 77.328 511.093 77.153 L 510.43 71.19 C 508.844 71.366 507.253 71.547 505.652 71.734 L 506.348 77.693 Z M 520.592 76.141 C 523.725 75.82 526.883 75.506 530.107 75.189 L 529.519 69.218 C 526.292 69.535 523.125 69.85 519.98 70.172 L 520.592 76.141 Z M 539.642 74.255 C 542.724 73.952 545.892 73.638 549.175 73.306 L 548.571 67.336 C 545.296 67.668 542.134 67.981 539.055 68.283 L 539.642 74.255 Z M 558.722 72.316 C 561.788 71.99 564.963 71.644 568.265 71.273 L 567.596 65.311 C 564.306 65.68 561.143 66.025 558.088 66.349 L 558.722 72.316 Z M 577.795 70.173 C 580.856 69.81 584.024 69.425 587.313 69.015 L 586.57 63.061 C 583.293 63.47 580.137 63.853 577.089 64.215 L 577.795 70.173 Z M 596.839 67.798 C 599.907 67.396 603.076 66.974 606.353 66.527 L 605.543 60.582 C 602.276 61.027 599.119 61.448 596.061 61.848 L 596.839 67.798 Z M 615.851 65.209 C 618.922 64.775 622.083 64.32 625.34 63.845 L 624.473 57.908 C 621.225 58.382 618.073 58.835 615.011 59.268 L 615.851 65.209 Z M 634.855 62.434 C 637.93 61.972 641.085 61.491 644.326 60.991 L 643.411 55.061 C 640.178 55.56 637.03 56.04 633.962 56.501 L 634.855 62.434 Z M 653.786 59.514 C 656.867 59.027 660.021 58.524 663.25 58.003 L 662.294 52.08 C 659.071 52.6 655.924 53.102 652.85 53.587 L 653.786 59.514 Z M 672.712 56.462 C 674.288 56.203 675.881 55.94 677.491 55.673 L 676.509 49.754 C 674.902 50.021 673.312 50.283 671.739 50.542 L 672.712 56.462 Z M 677.491 55.673 C 679.145 55.399 680.806 55.118 682.475 54.831 L 681.456 48.918 C 679.799 49.203 678.15 49.482 676.509 49.754 L 677.491 55.673 Z M 692.442 53.057 C 695.727 52.456 699.039 51.833 702.379 51.193 L 701.25 45.301 C 697.924 45.938 694.628 46.557 691.361 47.155 L 692.442 53.057 Z M 712.31 49.258 C 715.583 48.611 718.881 47.95 722.206 47.278 L 721.018 41.397 C 717.699 42.067 714.409 42.727 711.146 43.372 L 712.31 49.258 Z M 732.103 45.266 C 735.375 44.597 738.672 43.92 741.994 43.239 L 740.788 37.361 C 737.466 38.043 734.171 38.719 730.901 39.387 L 732.103 45.266 Z M 751.87 41.215 C 755.141 40.546 758.435 39.875 761.753 39.204 L 760.563 33.323 C 757.24 33.995 753.941 34.667 750.668 35.336 L 751.87 41.215 Z M 771.644 37.219 C 774.915 36.568 778.208 35.919 781.524 35.274 L 780.379 29.385 C 777.053 30.031 773.751 30.682 770.473 31.334 L 771.644 37.219 Z M 791.415 33.378 C 794.695 32.759 797.996 32.146 801.319 31.54 L 800.243 25.637 C 796.906 26.245 793.593 26.861 790.302 27.482 L 791.415 33.378 Z M 811.236 29.768 C 814.522 29.194 817.829 28.628 821.157 28.074 L 820.171 22.156 C 816.826 22.713 813.503 23.281 810.202 23.858 L 811.236 29.768 Z M 831.086 26.464 C 834.381 25.945 837.695 25.438 841.031 24.945 L 840.153 19.01 C 836.798 19.506 833.465 20.015 830.152 20.537 L 831.086 26.464 Z M 850.99 23.524 C 854.295 23.07 857.619 22.63 860.963 22.207 L 860.211 16.255 C 856.844 16.68 853.498 17.123 850.173 17.58 L 850.99 23.524 Z M 870.951 21.001 C 874.264 20.62 877.596 20.256 880.948 19.911 L 880.333 13.943 C 876.957 14.291 873.601 14.657 870.265 15.04 L 870.951 21.001 Z M 890.95 18.944 C 894.269 18.644 897.607 18.363 900.963 18.103 L 900.499 12.12 C 897.117 12.383 893.753 12.666 890.409 12.968 L 890.95 18.944 Z M 910.987 17.392 C 914.312 17.178 917.656 16.986 921.018 16.816 L 920.715 10.823 C 917.325 10.995 913.954 11.189 910.602 11.404 L 910.987 17.392 Z M 931.056 16.378 C 932.729 16.317 934.406 16.262 936.088 16.212 L 935.912 10.215 C 934.216 10.265 932.524 10.321 930.837 10.382 L 931.056 16.378 Z M 936.088 16.212 C 937.868 16.16 939.621 16.104 941.35 16.047 L 941.152 10.051 C 939.429 10.108 937.683 10.163 935.912 10.215 L 936.088 16.212 Z M 951.857 15.687 C 955.437 15.565 958.919 15.453 962.331 15.371 L 962.185 9.372 C 958.744 9.456 955.239 9.568 951.653 9.69 L 951.857 15.687 Z M 972.76 15.226 C 976.268 15.223 979.719 15.274 983.145 15.4 L 983.366 9.404 C 979.852 9.274 976.323 9.223 972.754 9.226 L 972.76 15.226 Z M 993.471 16.038 C 996.873 16.34 1000.28 16.739 1003.72 17.259 L 1004.61 11.326 C 1001.05 10.787 997.517 10.373 994.002 10.061 L 993.471 16.038 Z M 1013.85 19.127 C 1017.11 19.842 1020.44 20.677 1023.84 21.651 L 1025.49 15.883 C 1021.97 14.874 1018.52 14.007 1015.13 13.266 L 1013.85 19.127 Z M 1033.67 24.788 C 1036.81 25.89 1040.03 27.112 1043.34 28.469 L 1045.62 22.916 C 1042.21 21.523 1038.9 20.263 1035.66 19.127 L 1033.67 24.788 Z M 1052.85 32.616 C 1055.89 34.019 1059.01 35.53 1062.22 37.16 L 1064.93 31.809 C 1061.66 30.148 1058.47 28.604 1055.37 27.169 L 1052.85 32.616 Z M 1071.4 42.006 C 1074.35 43.624 1077.39 45.337 1080.5 47.151 L 1083.52 41.966 C 1080.36 40.127 1077.28 38.387 1074.28 36.742 L 1071.4 42.006 Z M 1089.43 52.486 C 1090.91 53.388 1092.4 54.312 1093.91 55.257 L 1097.09 50.171 C 1095.57 49.215 1094.06 48.282 1092.57 47.369 L 1089.43 52.486 Z M 1093.91 55.257 C 1095.31 56.134 1096.85 56.954 1098.51 57.722 L 1101.03 52.277 C 1099.56 51.598 1098.25 50.895 1097.09 50.171 L 1093.91 55.257 Z M 1107.92 61.213 C 1110.9 62.11 1114.14 62.925 1117.59 63.664 L 1118.85 57.798 C 1115.52 57.086 1112.45 56.309 1109.64 55.466 L 1107.92 61.213 Z M 1127.23 65.452 C 1130.33 65.95 1133.58 66.402 1136.93 66.811 L 1137.66 60.855 C 1134.37 60.454 1131.2 60.012 1128.18 59.528 L 1127.23 65.452 Z M 1146.66 67.848 C 1149.82 68.142 1153.07 68.403 1156.39 68.634 L 1156.81 62.649 C 1153.53 62.421 1150.33 62.163 1147.21 61.874 L 1146.66 67.848 Z M 1166.13 69.217 C 1169.32 69.378 1172.56 69.515 1175.86 69.629 L 1176.06 63.633 C 1172.8 63.52 1169.59 63.384 1166.43 63.224 L 1166.13 69.217 Z M 1185.59 69.897 C 1188.8 69.963 1192.04 70.01 1195.32 70.038 L 1195.37 64.038 C 1192.12 64.01 1188.89 63.964 1185.71 63.898 L 1185.59 69.897 Z M 1205.05 70.067 C 1208.27 70.059 1211.51 70.035 1214.77 69.994 L 1214.7 63.995 C 1211.46 64.035 1208.23 64.059 1205.03 64.067 L 1205.05 70.067 Z M 1224.49 69.83 C 1227.72 69.761 1230.96 69.678 1234.2 69.581 L 1234.02 63.583 C 1230.8 63.68 1227.58 63.763 1224.37 63.831 L 1224.49 69.83 Z M 1243.91 69.252 C 1247.15 69.129 1250.39 68.995 1253.62 68.848 L 1253.35 62.854 C 1250.13 63 1246.91 63.134 1243.68 63.256 L 1243.91 69.252 Z M 1263.32 68.372 C 1266.57 68.201 1269.8 68.019 1273.02 67.827 L 1272.66 61.838 C 1269.46 62.029 1266.24 62.21 1263.01 62.38 L 1263.32 68.372 Z M 1282.71 67.214 C 1285.96 66.997 1289.19 66.77 1292.39 66.535 L 1291.95 60.551 C 1288.77 60.786 1285.55 61.011 1282.31 61.228 L 1282.71 67.214 Z M 1302.06 65.788 C 1305.33 65.524 1308.56 65.251 1311.74 64.97 L 1311.22 58.993 C 1308.05 59.273 1304.83 59.544 1301.58 59.807 L 1302.06 65.788 Z M 1321.42 64.08 C 1324.71 63.765 1327.94 63.442 1331.09 63.113 L 1330.47 57.146 C 1327.33 57.473 1324.12 57.794 1320.85 58.108 L 1321.42 64.08 Z M 1340.74 62.062 C 1344.06 61.685 1347.28 61.301 1350.39 60.914 L 1349.65 54.96 C 1346.56 55.344 1343.37 55.725 1340.06 56.101 L 1340.74 62.062 Z M 1360.08 59.642 C 1363.49 59.17 1366.72 58.696 1369.74 58.222 L 1368.81 52.294 C 1365.83 52.762 1362.64 53.231 1359.26 53.699 L 1360.08 59.642 Z M 1379.33 56.592 C 1381.03 56.276 1382.63 55.962 1384.12 55.65 L 1382.88 49.778 C 1381.45 50.079 1379.89 50.384 1378.24 50.693 L 1379.33 56.592 Z M 1384.12 55.65 C 1385.54 55.352 1386.86 55.109 1388.13 54.908 L 1387.18 48.983 C 1385.82 49.2 1384.4 49.46 1382.88 49.778 L 1384.12 55.65 Z M 1396.25 54.004 C 1398.83 53.819 1401.71 53.676 1404.69 53.438 L 1404.22 47.457 C 1401.17 47.7 1398.68 47.814 1395.82 48.02 L 1396.25 54.004 Z M 1413.27 52.489 C 1415.8 52.125 1418.59 51.651 1421.75 51.018 L 1420.57 45.135 C 1417.52 45.747 1414.83 46.203 1412.41 46.55 L 1413.27 52.489 Z M 1430.1 49.16 C 1431.43 48.838 1432.81 48.491 1434.25 48.118 L 1432.75 42.309 C 1431.34 42.675 1429.98 43.014 1428.68 43.329 L 1430.1 49.16 Z" fill="#FBFBFB"></path>
</svg>